<?xml version="1.0" encoding="utf-8"?>
<!-- Generator: Adobe Illustrator 24.0.3, SVG Export Plug-In . SVG Version: 6.00 Build 0)  -->
<svg version="1.1" id="Livello_1" xmlns="http://www.w3.org/2000/svg" xmlns:xlink="http://www.w3.org/1999/xlink" x="0px" y="0px"
	 viewBox="0 0 40 40" style="enable-background:new 0 0 40 40;" xml:space="preserve">
<style type="text/css">
	.st0{fill:#73D7FF;}
	.st1{fill:#FFFFFF;}
	.st2{fill:#003575;}
</style>
<title>img_consensi</title>
<desc>Created with Sketch.</desc>
<g>
	<g>
		<g>
			<polygon class="st0" points="11.8,34.7 8.7,35.7 5.5,34.7 4.9,20.4 12.5,20.4 			"/>
		</g>
	</g>
	<g>
		<g>
			<rect x="4.9" y="4.1" class="st1" width="7.2" height="15.9"/>
		</g>
	</g>
	<g>
		<g>
			<rect x="21.4" y="4.1" class="st1" width="9.8" height="15.9"/>
		</g>
	</g>
	<g>
		<g>
			<polygon class="st0" points="21.4,20.7 15.5,35.2 16.8,36.2 36.5,36.2 37,34.6 31.2,20.7 			"/>
		</g>
	</g>
	<g>
		<g>
			<g>
				<g>
					<path class="st2" d="M16.5,36.6c-0.9,0-1.7-0.8-1.7-1.7c0-0.1,0-0.2,0.1-0.3c2.1-5.1,5.4-13.2,5.8-14.4c0,0,0-0.1,0-0.1V5.4
						c0,0,0,0,0-0.1c0,0,0-0.1,0-0.1c0-0.1,0-0.2-0.1-0.3c-0.1-0.1-0.2-0.1-0.3-0.1h-1.1c-0.4,0-0.7-0.3-0.7-0.7s0.3-0.7,0.7-0.7
						h14.5c0.4,0,0.7,0.3,0.7,0.7s-0.3,0.7-0.7,0.7h-1.1c-0.1,0-0.2,0-0.3,0.1c-0.1,0.1-0.1,0.2-0.1,0.3c0,0,0,0.1,0,0.1
						c0,0,0,0,0,0.1v14.8c0,0,0,0.1,0,0.1c0.4,1.2,3.6,9.4,5.5,14.4c0,0.1,0.1,0.2,0.1,0.3c0,0.9-0.8,1.7-1.7,1.7H16.5z M22.2,21.1
						c-0.2,0-0.3,0.1-0.3,0.2c-0.6,1.7-2.3,5.9-5.4,13.3c0,0.1,0,0.2,0,0.3c0.1,0.1,0.2,0.2,0.3,0.2h19c0.1,0,0.2-0.1,0.3-0.2
						c0.1-0.1,0.1-0.2,0-0.3C33.2,27.2,31.6,23,31,21.3c-0.1-0.1-0.2-0.2-0.3-0.2H22.2z M22.6,17.4c-0.2,0-0.4,0.2-0.4,0.4v1.4
						c0,0.2,0.2,0.4,0.4,0.4h7.8c0.2,0,0.4-0.2,0.4-0.4V5.4c0-0.3-0.2-0.5-0.5-0.5h-7.4c-0.3,0-0.5,0.2-0.5,0.5v1.3
						c0,0.2,0.2,0.4,0.4,0.4h2.2c0.4,0,0.7,0.3,0.7,0.7s-0.3,0.7-0.7,0.7h-2.2c-0.2,0-0.4,0.2-0.4,0.4v2.2c0,0.2,0.2,0.4,0.4,0.4
						h2.2c0.4,0,0.7,0.3,0.7,0.7c0,0.4-0.3,0.7-0.7,0.7h-2.2c-0.2,0-0.4,0.2-0.4,0.4v2.2c0,0.2,0.2,0.4,0.4,0.4h2.2
						c0.4,0,0.7,0.3,0.7,0.7s-0.3,0.7-0.7,0.7H22.6z"/>
				</g>
			</g>
		</g>
		<g>
			<g>
				<g>
					<path class="st2" d="M8.7,36.6C6.1,36.6,4,34.6,4,32V5.2C4,5,3.9,4.8,3.7,4.8c-0.4,0-0.7-0.3-0.7-0.7s0.3-0.7,0.7-0.7h10
						c0.4,0,0.7,0.3,0.7,0.7s-0.3,0.7-0.7,0.7c-0.2,0-0.4,0.2-0.4,0.4V32C13.3,34.6,11.2,36.6,8.7,36.6z M5.9,21.1
						c-0.2,0-0.4,0.2-0.4,0.4V32c0,1.7,1.4,3.1,3.1,3.1c1.7,0,3.1-1.4,3.1-3.1V21.4c0-0.2-0.2-0.4-0.4-0.4H5.9z M5.9,17.4
						c-0.2,0-0.4,0.2-0.4,0.4v1.4c0,0.2,0.2,0.4,0.4,0.4h5.6c0.2,0,0.4-0.2,0.4-0.4v-14c0-0.2-0.2-0.4-0.4-0.4H5.9
						C5.7,4.8,5.5,5,5.5,5.2v1.4C5.5,6.8,5.7,7,5.9,7h2.2c0.4,0,0.7,0.3,0.7,0.7S8.5,8.5,8.1,8.5H5.9c-0.2,0-0.4,0.2-0.4,0.4v2.2
						c0,0.2,0.2,0.4,0.4,0.4h2.2c0.4,0,0.7,0.3,0.7,0.7c0,0.4-0.3,0.7-0.7,0.7H5.9c-0.2,0-0.4,0.2-0.4,0.4v2.2
						c0,0.2,0.2,0.4,0.4,0.4h2.2c0.4,0,0.7,0.3,0.7,0.7s-0.3,0.7-0.7,0.7H5.9z"/>
				</g>
			</g>
		</g>
		<g>
			<g>
				<g>
					<rect x="24.1" y="29.6" class="st2" width="1.5" height="1.5"/>
				</g>
			</g>
		</g>
		<g>
			<g>
				<g>
					<rect x="27.4" y="29.6" class="st2" width="1.5" height="1.5"/>
				</g>
			</g>
		</g>
		<g>
			<g>
				<g>
					<rect x="24.1" y="25.1" class="st2" width="1.5" height="1.5"/>
				</g>
			</g>
		</g>
		<g>
			<g>
				<g>
					<rect x="27.4" y="25.1" class="st2" width="1.5" height="1.5"/>
				</g>
			</g>
		</g>
	</g>
</g>
</svg>
