<?xml version="1.0" encoding="utf-8"?>
<!-- Generator: Adobe Illustrator 21.0.2, SVG Export Plug-In . SVG Version: 6.00 Build 0)  -->
<svg version="1.1" id="Layer_1" xmlns="http://www.w3.org/2000/svg" xmlns:xlink="http://www.w3.org/1999/xlink" x="0px" y="0px"
	 viewBox="0 0 65 73" style="enable-background:new 0 0 65 73;" xml:space="preserve">
<style type="text/css">
	.st0{fill:#73D7FF;}
	.st1{fill:#FFFFFF;}
	.st2{fill:#003575;}
</style>
<g>
	<g>
		<g>
			<path class="st0" d="M47.6,51l-1.7-3.7l-3.3-0.6l-2.4-0.5l-1.7-1.7L38.2,43c-1.6,0.8-3.5,1.3-5.6,1.3c-2.2,0-4.2-0.5-5.8-1.4
				l-0.1,0.6l-1.6,2.3l-3.8,0.4L19,47.5l-1.9,6.6v3.4h30.8l0.5-0.8L47.6,51z"/>
		</g>
	</g>
	<g>
		<g>
			<ellipse class="st1" cx="32.6" cy="32.6" rx="5.4" ry="7.9"/>
		</g>
	</g>
	<g>
		<g>
			<rect x="25.7" y="15.6" class="st0" width="13.9" height="13.5"/>
		</g>
	</g>
	<g>
		<g>
			<g>
				<g>
					<path class="st2" d="M17.1,58.5c-0.5,0-0.9-0.4-0.9-0.9c-0.1-0.8-0.4-8.1,2.3-11c0.8-0.8,1.7-1.2,2.8-1.2c2.1,0,3.6,0,4.8-2.3
						c0.2-0.3,0.5-0.5,0.8-0.5c0.1,0,0.3,0,0.4,0.1c0.5,0.2,0.6,0.8,0.4,1.3c-1.7,3.3-4.2,3.3-6.5,3.3c-0.6,0-1,0.2-1.4,0.6
						c-1.4,1.5-1.9,5.2-1.8,8.2c0,0.3,0.2,0.5,0.5,0.5h12.6c0.3,0,0.5-0.2,0.5-0.5v-4.2c0-0.5,0.4-0.9,0.9-0.9
						c0.5,0,0.9,0.4,0.9,0.9v4.2c0,0.3,0.2,0.5,0.5,0.5h12.6c0.3,0,0.5-0.2,0.5-0.5c0-3-0.5-6.8-1.8-8.2c-0.4-0.4-0.9-0.6-1.4-0.6
						l-0.4,0c-2.4,0-4.6-0.3-6-3.4c-0.2-0.5,0-1,0.5-1.2c0.1-0.1,0.3-0.1,0.4-0.1c0.4,0,0.7,0.2,0.9,0.6c1,2.2,2.3,2.2,4.5,2.3
						l0.2,0c1.1,0,2,0.4,2.8,1.2c2.7,2.9,2.4,10.2,2.3,11c0,0.5-0.4,0.9-0.9,0.9H17.1z"/>
				</g>
			</g>
		</g>
		<g>
			<g>
				<g>
					<path class="st2" d="M32.5,41.7c-3.4,0-6.6-4.6-6.6-9.4c0-0.4,0-0.9,0.1-1.3c0-0.1,0-0.3-0.1-0.4c-0.1-0.1-0.2-0.2-0.3-0.2
						h-0.1c-0.5,0-0.9-0.4-0.9-0.9v-14c0-0.5,0.4-0.9,0.9-0.9h14c0.5,0,0.9,0.4,0.9,0.9v14c0,0.5-0.4,0.9-0.9,0.9h-0.1
						c-0.1,0-0.3,0.1-0.3,0.2c-0.1,0.1-0.1,0.2-0.1,0.4c0.1,0.5,0.1,0.9,0.1,1.3C39.1,37.1,35.9,41.7,32.5,41.7z M28.4,30.4
						c-0.2,0-0.4,0.1-0.4,0.4c-0.1,0.5-0.2,1-0.2,1.5c0,4,2.6,7.5,4.7,7.5c2.1,0,4.7-3.5,4.7-7.5c0-0.5-0.1-1-0.2-1.5
						c0-0.2-0.2-0.4-0.4-0.4H28.4z M26.9,16.4c-0.3,0-0.5,0.2-0.5,0.5v11.2c0,0.3,0.2,0.5,0.5,0.5h11.2c0.3,0,0.5-0.2,0.5-0.5V16.8
						c0-0.3-0.2-0.5-0.5-0.5H26.9z"/>
				</g>
			</g>
		</g>
		<g>
			<g>
				<g>
					<path class="st2" d="M33.4,25.3c0,0.5-0.4,0.9-0.9,0.9c-0.5,0-0.9-0.4-0.9-0.9v-1.4c0-0.3-0.2-0.5-0.5-0.5h-1.4
						c-0.5,0-0.9-0.4-0.9-0.9s0.4-0.9,0.9-0.9h1.4c0.3,0,0.5-0.2,0.5-0.5v-1.4c0-0.5,0.4-0.9,0.9-0.9c0.5,0,0.9,0.4,0.9,0.9v1.4
						c0,0.3,0.2,0.5,0.5,0.5h1.4c0.5,0,0.9,0.4,0.9,0.9s-0.4,0.9-0.9,0.9h-1.4"/>
				</g>
			</g>
		</g>
		<g>
			<g>
				<g>
					<path class="st2" d="M22.7,52.9c-0.5,0-0.9-0.4-0.9-0.9s0.4-0.9,0.9-0.9h4.2c0.5,0,0.9,0.4,0.9,0.9s-0.4,0.9-0.9,0.9H22.7z"/>
				</g>
			</g>
		</g>
		<g>
			<g>
				<g>
					<rect x="31.6" y="47" class="st2" width="1.9" height="1.9"/>
				</g>
			</g>
		</g>
	</g>
</g>
</svg>
