<?xml version="1.0" encoding="utf-8"?>
<!-- Generator: Adobe Illustrator 21.0.2, SVG Export Plug-In . SVG Version: 6.00 Build 0)  -->
<svg version="1.1" id="Livello_1" xmlns="http://www.w3.org/2000/svg" xmlns:xlink="http://www.w3.org/1999/xlink" x="0px" y="0px"
	 viewBox="0 0 56.5 52.8" style="enable-background:new 0 0 56.5 52.8;" xml:space="preserve">
<style type="text/css">
	.st0{fill:#73D7FF;}
	.st1{fill:#FFFFFF;}
	.st2{fill:#003575;}
</style>
<g>
	<g>
		<g>
			<rect x="9.6" y="15.2" class="st0" width="41.3" height="29.1"/>
		</g>
	</g>
	<g>
		<polygon class="st1" points="38.4,26.7 32.9,26.7 32.9,21.3 27.5,21.3 27.5,26.7 22.1,26.7 22.1,32.1 27.5,32.1 27.5,37.6 
			32.9,37.6 32.9,32.1 38.4,32.1 		"/>
	</g>
	<g>
		<g>
			<path class="st2" d="M48.4,13.4c-0.2,0-0.4-0.2-0.4-0.5v-1.4c0-0.5-0.4-0.9-0.9-0.9s-0.9,0.4-0.9,0.9v1.4c0,0.3-0.2,0.5-0.5,0.5
				h-2.8c-0.3,0-0.5-0.2-0.5-0.5v-2.8c0-2.1-1.7-3.8-3.8-3.8H21.8c-2.1,0-3.8,1.7-3.8,3.8v2.8c0,0.3-0.2,0.5-0.5,0.5h-2.8
				c-0.3,0-0.5-0.2-0.5-0.5v-1.4c0-0.5-0.4-0.9-0.9-0.9c-0.5,0-0.9,0.4-0.9,0.9V13c0,0.2-0.2,0.5-0.4,0.5c-2.1,0.1-3.8,1.8-3.8,3.9
				v27.9c0,0.5,0.4,0.9,0.9,0.9h42.1c0.5,0,0.9-0.4,0.9-0.9V17.3C52.2,15.2,50.6,13.5,48.4,13.4z M19.9,10.1c0-1,0.8-1.9,1.9-1.9
				h16.8c1,0,1.9,0.8,1.9,1.9v2.8c0,0.3-0.2,0.5-0.5,0.5H20.4c-0.3,0-0.5-0.2-0.5-0.5V10.1z M50.3,43.8c0,0.3-0.2,0.5-0.5,0.5H10.6
				c-0.3,0-0.5-0.2-0.5-0.5V17.3c0-1.1,0.9-2,2-2h36.1c1.1,0,2,0.9,2,2V43.8z"/>
		</g>
		<g>
			<g>
				<g>
					<path class="st2" d="M27.4,39.2c-0.5,0-0.9-0.4-0.9-0.9V34c0-0.3-0.2-0.5-0.5-0.5h-4.2c-0.5,0-0.9-0.4-0.9-0.9V27
						c0-0.5,0.4-0.9,0.9-0.9H26c0.3,0,0.5-0.2,0.5-0.5v-4.2c0-0.5,0.4-0.9,0.9-0.9H33c0.5,0,0.9,0.4,0.9,0.9v4.2
						c0,0.3,0.2,0.5,0.5,0.5h4.2c0.5,0,0.9,0.4,0.9,0.9v5.6c0,0.5-0.4,0.9-0.9,0.9h-4.2c-0.3,0-0.5,0.2-0.5,0.5v4.2
						c0,0.5-0.4,0.9-0.9,0.9H27.4z M23.2,27.9c-0.3,0-0.5,0.2-0.5,0.5v2.8c0,0.3,0.2,0.5,0.5,0.5h4.2c0.5,0,0.9,0.4,0.9,0.9v4.2
						c0,0.3,0.2,0.5,0.5,0.5h2.8c0.3,0,0.5-0.2,0.5-0.5v-4.2c0-0.5,0.4-0.9,0.9-0.9h4.2c0.3,0,0.5-0.2,0.5-0.5v-2.8
						c0-0.3-0.2-0.5-0.5-0.5H33c-0.5,0-0.9-0.4-0.9-0.9v-4.2c0-0.3-0.2-0.5-0.5-0.5h-2.8c-0.3,0-0.5,0.2-0.5,0.5V27
						c0,0.5-0.4,0.9-0.9,0.9H23.2z"/>
				</g>
			</g>
		</g>
	</g>
</g>
</svg>
