<?xml version="1.0" encoding="utf-8"?>
<!-- Generator: Adobe Illustrator 24.0.3, SVG Export Plug-In . SVG Version: 6.00 Build 0)  -->
<svg version="1.1" id="Livello_1" xmlns="http://www.w3.org/2000/svg" xmlns:xlink="http://www.w3.org/1999/xlink" x="0px" y="0px"
	 viewBox="0 0 40 40" style="enable-background:new 0 0 40 40;" xml:space="preserve">
<style type="text/css">
	.st0{fill:#003575;}
	.st1{fill:#FFFFFF;}
	.st2{fill:#73D7FF;}
	.st3{fill:none;stroke:#73D7FF;stroke-width:2;stroke-miterlimit:10;}
</style>
<title>img_consensi</title>
<desc>Created with Sketch.</desc>
<g>
	<path class="st0" d="M1.2,2.5v32.4h37.9V2.5H1.2z M37.4,33.2H2.9v-29h34.5V33.2z"/>
	<rect x="2.9" y="4.2" class="st1" width="34.5" height="29"/>
</g>
<rect x="5" y="6.3" class="st1" width="30.3" height="24.9"/>
<path class="st2" d="M36.1,32h-32V5.4h32V32z M5.8,30.3h28.6V7.1H5.8L5.8,30.3z"/>
<path class="st3" d="M7.1,28"/>
<path class="st0" d="M21.3,29.4h-4c-0.4,0-0.7-0.3-0.7-0.7c0,0,0,0,0-0.1c0.2-1.7,0.2-3,0.2-4.2c0-0.9,0-1.8-0.2-2.7
	c0-0.1,0-0.2,0-0.3c0-0.7,0.5-1.2,1.1-1.4c0.2,0,0.4,0,0.6,0.2l0.1,0.1c1.1,0.9,2.6,0.9,3.7,0.2c0.2-0.1,0.4-0.1,0.5-0.1
	c0.9,0.2,1.4,1.1,1.2,1.9c-0.1,0.3-0.3,0.6-0.5,0.8c-0.7,1.8-1.2,3.7-1.4,5.6C21.9,29.2,21.6,29.4,21.3,29.4z M17.4,28.6h3.7
	c0.2-2,0.7-4,1.5-5.8l0.1-0.1l0.1-0.1c0.3-0.2,0.4-0.7,0.2-1c-0.1-0.1-0.2-0.2-0.4-0.3c-1.4,0.9-3.3,0.8-4.6-0.2L17.8,21
	c-0.2,0.1-0.4,0.3-0.4,0.5c0,0,0,0.1,0,0.1c0.2,1,0.2,1.9,0.2,2.9C17.6,26,17.5,27.5,17.4,28.6z M22.6,21.3 M15.4,29.4h-1.7
	c-0.4,0-0.7-0.3-0.7-0.7c0-0.2,0-0.3,0.1-0.4c0.8-1.2,1.4-2.6,1.8-4c0.1-0.4,0.4-0.6,0.8-0.5c0.3,0.1,0.5,0.4,0.5,0.7v0.3
	c0,1.1-0.1,2.4-0.2,4C16,29.1,15.7,29.4,15.4,29.4L15.4,29.4z M13.8,28.8 M14,28.6h1.2c0.1-1.1,0.2-2,0.2-2.9
	C15.1,26.7,14.6,27.7,14,28.6L14,28.6z M20.3,20.5c-2.2,0-4-1.8-4-4c0.1-2.6-0.6-5.3-2.1-7.5c-0.2-0.3-0.1-0.7,0.2-0.9
	C14.6,8,14.7,8,14.9,8h4.8c0.3,0,0.6,0.2,0.7,0.5c0.3,1.6,2.3,4.4,3.1,5.5c1.4,1.7,1.2,4.2-0.5,5.6C22.2,20.2,21.3,20.5,20.3,20.5
	L20.3,20.5z M15.2,8.8c1.4,2.3,2.2,5,2.1,7.7c0,1.7,1.4,3.1,3.1,3.1c1.7,0,3.1-1.4,3.1-3.1c0-0.7-0.3-1.5-0.7-2l0,0
	c-1.3-1.8-2.9-4.1-3.2-5.7H15.2z M24.9,20l-0.3-0.8c1.5-0.5,2.2-2.1,1.7-3.5c-0.3-0.8-0.9-1.5-1.7-1.7l0.3-0.8
	c1.9,0.7,2.9,2.7,2.3,4.6C26.8,18.8,26,19.6,24.9,20L24.9,20z"/>
</svg>
