<?xml version="1.0" encoding="utf-8"?>
<!-- Generator: Adobe Illustrator 24.0.3, SVG Export Plug-In . SVG Version: 6.00 Build 0)  -->
<svg version="1.1" id="Livello_1" xmlns="http://www.w3.org/2000/svg" xmlns:xlink="http://www.w3.org/1999/xlink" x="0px" y="0px"
	 viewBox="0 0 40 40" style="enable-background:new 0 0 40 40;" xml:space="preserve">
<style type="text/css">
	.st0{fill:#1E3A6D;}
	.st1{fill:#FFFFFF;}
	.st2{fill:#73D7FF;}
</style>
<title>img_consensi</title>
<desc>Created with Sketch.</desc>
<g>
	<path class="st0" d="M22.3,39.5l-0.2,0l-1.8-0.7c-0.3-0.3-0.4-0.6-0.2-1l0.4-0.9c0,0,0-0.1,0-0.1L8,31.7c0,0-0.1,0.1-0.2,0.2
		l-0.4,0.8c-0.2,0.5-0.6,0.5-0.9,0.5l-0.2,0l-1.8-0.7c-0.1-0.1-0.5-0.5-0.2-1l3.2-8.1L16.7,1c0.4-0.7,0.9-0.5,1.1-0.5l1.7,0.7
		c0.1,0.1,0.2,0.3,0.2,0.4c0.1,0.2,0,0.4-0.1,0.6l-0.4,0.8c0,0,0,0.1,0,0.1L32,8.4c0,0,0.1-0.1,0.2-0.2l0.4-0.8
		c0.2-0.5,0.6-0.5,0.9-0.5l0.2,0l1.8,0.7l-0.4,0.4l0.4-0.4c0.1,0.1,0.5,0.5,0.2,1l-9.3,22.8l0,0L23.2,39
		C23,39.5,22.6,39.5,22.3,39.5z M5.3,31.9L5.3,31.9C5.3,31.9,5.3,31.9,5.3,31.9z M34.7,8.1C34.7,8.1,34.7,8.1,34.7,8.1L34.7,8.1z
		 M17.4,1.5C17.4,1.5,17.4,1.5,17.4,1.5L17.4,1.5z"/>
</g>
<path class="st1" d="M21.2,38l1.2,0.4l3.4-8.4l0,0l8.9-21.8l-1.2-0.4l-0.3,0.8c-0.4,0.6-0.9,0.8-1.4,0.7L19,4.2
	c-0.6-0.2-0.8-0.9-0.6-1.4L18.7,2l-1.2-0.4l-9,22.3l-3.1,7.9l1.2,0.4l0.3-0.8c0.4-0.6,0.9-0.8,1.4-0.7l12.6,5.1
	c0.3,0.1,0.5,0.3,0.6,0.6c0.1,0.3,0.1,0.5,0,0.8L21.2,38z"/>
<g>
	<g>
		<g>
			<g>
				<g>
					<g>
						
							<rect x="17.1" y="9.1" transform="matrix(0.3742 -0.9274 0.9274 0.3742 1.9038 22.1367)" class="st2" width="0.6" height="1.1"/>
					</g>
				</g>
			</g>
		</g>
	</g>
	<g>
		<g>
			<g>
				<g>
					<g>
						
							<rect x="15.1" y="8.4" transform="matrix(0.3742 -0.9274 0.9274 0.3742 1.3568 19.8314)" class="st2" width="0.6" height="1.1"/>
					</g>
				</g>
			</g>
		</g>
	</g>
	<g>
		<g>
			<g>
				<g>
					<g>
						
							<rect x="19" y="9.9" transform="matrix(0.3742 -0.9274 0.9274 0.3742 2.3415 24.4653)" class="st2" width="0.6" height="1.1"/>
					</g>
				</g>
			</g>
		</g>
	</g>
	<g>
		<g>
			<g>
				<g>
					<g>
						
							<rect x="20.9" y="10.7" transform="matrix(0.3742 -0.9274 0.9274 0.3742 2.8652 26.6612)" class="st2" width="0.6" height="1.1"/>
					</g>
				</g>
			</g>
		</g>
	</g>
	<g>
		<g>
			<g>
				<g>
					<g>
						
							<rect x="22.8" y="11.5" transform="matrix(0.3742 -0.9274 0.9274 0.3742 3.3028 28.9898)" class="st2" width="0.6" height="1.1"/>
					</g>
				</g>
			</g>
		</g>
	</g>
	<g>
		<g>
			<g>
				<g>
					<g>
						
							<rect x="24.8" y="12.2" transform="matrix(0.3742 -0.9274 0.9274 0.3742 3.8498 31.2952)" class="st2" width="0.6" height="1.1"/>
					</g>
				</g>
			</g>
		</g>
	</g>
	<g>
		<g>
			<g>
				<g>
					<g>
						
							<rect x="26.8" y="13.1" transform="matrix(0.3742 -0.9274 0.9274 0.3742 4.2874 33.6238)" class="st2" width="0.6" height="1.1"/>
					</g>
				</g>
			</g>
		</g>
	</g>
	<g>
		<g>
			<g>
				<g>
					<g>
						
							<rect x="28.7" y="13.8" transform="matrix(0.3742 -0.9274 0.9274 0.3742 4.8345 35.929)" class="st2" width="0.6" height="1.1"/>
					</g>
				</g>
			</g>
		</g>
	</g>
	<g>
		<g>
			<g>
				<g>
					<g>
						
							<rect x="30.7" y="14.7" transform="matrix(0.3742 -0.9274 0.9274 0.3742 5.2721 38.2576)" class="st2" width="0.6" height="1.1"/>
					</g>
				</g>
			</g>
		</g>
	</g>
</g>
</svg>
