<?xml version="1.0" encoding="utf-8"?>
<!-- Generator: Adobe Illustrator 21.0.2, SVG Export Plug-In . SVG Version: 6.00 Build 0)  -->
<svg version="1.1" id="Livello_1" xmlns="http://www.w3.org/2000/svg" xmlns:xlink="http://www.w3.org/1999/xlink" x="0px" y="0px"
	 viewBox="0 0 56.5 52.8" style="enable-background:new 0 0 56.5 52.8;" xml:space="preserve">
<style type="text/css">
	.st0{fill:#73D7FF;}
	.st1{fill:#FFFFFF;}
	.st2{fill:#003575;}
</style>
<g>
	<g>
		<g>
			<path class="st0" d="M25.8,7.8C25,7.3,24.5,7,24.2,7c0,0,0,0,0,0c-0.1,0-0.1,0-0.2,0c-0.3,0.1-0.5,0.5-1.1,1.7
				c-0.4,0.9-0.8,1.8-1.5,2.3c-0.7,0.6-1.8,0.7-2.7,0.8c-1.3,0.2-1.7,0.3-1.9,0.6c-0.2,0.3-0.2,0.8,0,2.1c0.2,0.9,0.3,2,0.1,2.9
				c-0.3,0.9-1,1.6-1.6,2.2c-0.9,0.8-1.3,1.3-1.3,1.8c0,0.4,0.4,0.9,1.3,1.8c0.7,0.7,1.4,1.4,1.6,2.2c0.3,0.9,0.1,1.9-0.1,2.9
				c-0.2,1.3-0.2,1.8,0,2.1c0.2,0.3,0.6,0.4,1.9,0.6c0.9,0.1,1.9,0.3,2.7,0.8c0.7,0.5,1.1,1.5,1.5,2.3c0.5,1,0.8,1.6,1.1,1.7
				c0,0,0.1,0,0.1,0c0,0,0.1,0,0.1,0c0.3,0,0.8-0.2,1.4-0.6c0.1,0,0.2-0.1,0.2-0.1c0.8-0.5,1.7-1,2.7-1c0.9,0,1.9,0.5,2.7,1
				c0.4,0.2,1.2,0.7,1.6,0.7c0,0,0,0,0,0c0.1,0,0.1,0,0.2,0c0.3-0.1,0.5-0.5,1.1-1.7c0.4-0.9,0.8-1.8,1.5-2.3
				c0.7-0.6,1.8-0.7,2.7-0.8c1.3-0.2,1.7-0.3,1.9-0.6c0.2-0.3,0.2-0.8,0-2.1c-0.2-0.9-0.3-2-0.1-2.9c0.3-0.9,1-1.6,1.6-2.2
				c0.9-0.8,1.3-1.3,1.3-1.8s-0.4-0.9-1.3-1.8c-0.7-0.7-1.4-1.4-1.6-2.2c-0.3-0.9-0.1-1.9,0.1-2.9c0.2-1.3,0.2-1.8,0-2.1
				c-0.2-0.3-0.6-0.4-1.9-0.6c-0.9-0.1-1.9-0.3-2.7-0.8c-0.7-0.5-1.1-1.5-1.5-2.3c-0.5-1.1-0.8-1.6-1.1-1.7c0,0,0,0,0,0
				c-0.1,0-0.2,0-0.2,0c-0.3,0-0.7,0.2-1.3,0.6c-0.1,0.1-0.2,0.1-0.3,0.2c-0.8,0.5-1.7,1-2.7,1C27.6,8.7,26.6,8.2,25.8,7.8z"/>
		</g>
	</g>
	<g>
		<g>
			<circle class="st1" cx="28.5" cy="21.5" r="7.9"/>
		</g>
	</g>
	<g>
		<g>
			<polygon class="st1" points="33.4,44.7 29,35.7 33,36.7 37.8,33 41.5,43.5 36.9,44 34.9,46.5 33.6,45.7 			"/>
		</g>
	</g>
	<g>
		<g>
			<polygon class="st1" points="27.9,37.5 23.1,47.1 19.5,43.3 14.4,43.9 20.6,33 23.5,37.1 27.1,36.1 			"/>
		</g>
	</g>
	<g>
		<g>
			<g>
				<g>
					<path class="st2" d="M28.5,30.9c-5.2,0-9.4-4.2-9.4-9.4c0-5.2,4.2-9.4,9.4-9.4c5.2,0,9.4,4.2,9.4,9.4
						C37.9,26.7,33.7,30.9,28.5,30.9z M28.5,14.1c-4.1,0-7.5,3.4-7.5,7.5c0,4.1,3.4,7.5,7.5,7.5c4.1,0,7.5-3.4,7.5-7.5
						C36,17.4,32.6,14.1,28.5,14.1z"/>
				</g>
			</g>
		</g>
		<g>
			<g>
				<path class="st2" d="M38.4,33.6c-0.1-0.1-0.1-0.3,0-0.4c0.1-0.1,0.2-0.2,0.3-0.2c1.2-0.2,2.4-0.4,3-1.4c0.7-1,0.5-2.3,0.3-3.5
					c-0.2-0.9-0.3-1.6-0.1-2c0.1-0.4,0.6-0.8,1.2-1.4c0.8-0.8,1.8-1.8,1.8-3.1c0-1.3-1-2.2-1.8-3.1c-0.6-0.6-1-1.1-1.2-1.4
					c-0.1-0.4,0-1.1,0.1-2c0.2-1.2,0.4-2.5-0.3-3.5c-0.7-1-2-1.2-3.2-1.4c-0.8-0.1-1.4-0.2-1.8-0.5c-0.3-0.2-0.6-0.8-1-1.6
					c-0.5-1.2-1.1-2.3-2.3-2.8c-0.2-0.1-0.5-0.1-0.7-0.1c-0.9,0-1.8,0.5-2.6,0.9c-0.8,0.4-1.3,0.7-1.8,0.7c-0.4,0-1-0.3-1.8-0.7
					c-0.7-0.4-1.7-0.9-2.6-0.9c-0.3,0-0.5,0-0.7,0.1c-1.2,0.4-1.7,1.6-2.3,2.8c-0.4,0.8-0.6,1.4-1,1.6c-0.3,0.2-1,0.4-1.8,0.5
					c-1.2,0.2-2.5,0.3-3.2,1.4c-0.7,1-0.5,2.3-0.3,3.5c0.2,0.9,0.2,1.5,0.1,2c-0.1,0.4-0.6,0.8-1.2,1.4c-0.8,0.8-1.8,1.8-1.8,3.1
					c0,1.3,1,2.2,1.8,3.1c0.6,0.6,1,1,1.2,1.4c0.1,0.4,0,1.1-0.1,2c-0.2,1.2-0.4,2.5,0.3,3.5c0.7,1,1.8,1.2,3,1.4
					c0.1,0,0.3,0.1,0.3,0.2c0.1,0.1,0.1,0.3,0,0.4l-5.1,10.3c-0.2,0.3-0.1,0.7,0.1,1c0.2,0.2,0.5,0.4,0.7,0.4c0.1,0,0.1,0,0.2,0
					l4.7-0.9c0,0,0.1,0,0.1,0c0.2,0,0.3,0.1,0.4,0.2l2.4,4.1c0.2,0.3,0.5,0.5,0.8,0.5l0,0c0.3,0,0.7-0.2,0.8-0.5l5.8-11.7
					c0,0,0,0,0.1-0.1c0.1,0,0.1,0,0.2,0c0.1,0,0.2,0,0.2,0.1l0.2,0.1c0.8,0.4,1.7,0.9,2.6,0.9c0.3,0,0.5,0,0.7-0.1
					c1.2-0.4,1.7-1.6,2.3-2.8c0-0.1,0.1-0.2,0.2-0.3c0.1-0.2,0.2-0.3,0.4-0.3c0,0,0,0,0,0c0.2,0,0.3,0.1,0.4,0.3l3.7,7.5
					c0.1,0.2,0.1,0.3,0,0.5c-0.1,0.1-0.2,0.2-0.4,0.2c0,0-0.1,0-0.1,0l-2.9-0.5c-0.1,0-0.1,0-0.2,0c-0.3,0-0.6,0.2-0.8,0.5l-1.5,2.7
					c-0.1,0.1-0.2,0.2-0.4,0.2c0,0,0,0,0,0c-0.2,0-0.3-0.1-0.4-0.3l-1.6-3.3c-0.2-0.3-0.5-0.5-0.8-0.5c-0.1,0-0.3,0-0.4,0.1
					c-0.2,0.1-0.4,0.3-0.5,0.5c-0.1,0.2-0.1,0.5,0,0.7l2.8,5.6c0.2,0.3,0.5,0.5,0.8,0.5h0c0.3,0,0.7-0.2,0.8-0.5l2.4-4.1
					c0.1-0.1,0.2-0.2,0.4-0.2c0,0,0.1,0,0.1,0l4.7,0.9c0.1,0,0.1,0,0.2,0h0c0.3,0,0.6-0.1,0.7-0.4c0.2-0.3,0.3-0.7,0.1-1L38.4,33.6z
					 M27.1,37.8l-3.8,7.7c-0.1,0.2-0.2,0.3-0.4,0.3c0,0,0,0,0,0c-0.2,0-0.3-0.1-0.4-0.2l-1.5-2.7c-0.2-0.3-0.5-0.5-0.8-0.5
					c-0.1,0-0.1,0-0.2,0L17,42.9c0,0-0.1,0-0.1,0c-0.1,0-0.3-0.1-0.4-0.2c-0.1-0.1-0.1-0.3,0-0.5l3.7-7.5c0.1-0.2,0.2-0.3,0.4-0.3h0
					c0.2,0,0.3,0.1,0.4,0.3c0.1,0.1,0.1,0.2,0.2,0.3c0.5,1.2,1.1,2.3,2.3,2.8c0.2,0.1,0.5,0.1,0.7,0.1c0.8,0,1.6-0.4,2.3-0.8
					c0.1,0,0.1-0.1,0.2-0.1c0.1,0,0.2,0,0.3,0.1C27.1,37.4,27.1,37.6,27.1,37.8z M35.7,31.9c-0.7,0.6-1.1,1.5-1.5,2.3
					c-0.5,1.2-0.8,1.6-1.1,1.7c-0.1,0-0.1,0-0.2,0c0,0,0,0,0,0c-0.4,0-1.3-0.5-1.6-0.7c-0.8-0.5-1.7-1-2.7-1c-1,0-1.9,0.5-2.7,1
					c-0.1,0-0.2,0.1-0.2,0.1c-0.6,0.3-1,0.6-1.4,0.6c0,0-0.1,0-0.1,0c0,0-0.1,0-0.1,0c-0.3-0.2-0.6-0.7-1.1-1.7
					c-0.4-0.9-0.8-1.8-1.5-2.3c-0.7-0.6-1.8-0.7-2.7-0.8c-1.3-0.2-1.7-0.3-1.9-0.6c-0.2-0.3-0.2-0.8,0-2.1c0.2-0.9,0.3-2,0.1-2.9
					c-0.3-0.9-1-1.6-1.6-2.2C14.4,22.5,14,22,14,21.5c0-0.4,0.4-0.9,1.3-1.8c0.7-0.7,1.4-1.4,1.6-2.2c0.3-0.9,0.1-1.9-0.1-2.9
					c-0.2-1.3-0.2-1.8,0-2.1c0.2-0.3,0.6-0.4,1.9-0.6c0.9-0.1,1.9-0.3,2.7-0.8c0.7-0.6,1.1-1.5,1.5-2.3c0.5-1.2,0.8-1.6,1.1-1.7
					c0.1,0,0.1,0,0.2,0c0,0,0,0,0,0c0.3,0,0.8,0.2,1.6,0.7c0.8,0.5,1.7,1,2.7,1c0.9,0,1.9-0.5,2.7-1c0.1,0,0.2-0.1,0.3-0.2
					C32,7.3,32.4,7,32.8,7c0.1,0,0.2,0,0.2,0c0,0,0,0,0,0c0.3,0.2,0.6,0.7,1.1,1.7c0.4,0.9,0.8,1.8,1.5,2.3c0.7,0.6,1.8,0.7,2.7,0.8
					c1.3,0.2,1.7,0.3,1.9,0.6c0.2,0.3,0.2,0.8,0,2.1c-0.2,0.9-0.3,2-0.1,2.9c0.3,0.9,1,1.6,1.6,2.2c0.9,0.8,1.3,1.3,1.3,1.8
					s-0.4,0.9-1.3,1.8c-0.7,0.7-1.4,1.4-1.6,2.2c-0.3,0.9-0.1,1.9,0.1,2.9c0.2,1.3,0.2,1.8,0,2.1c-0.2,0.3-0.6,0.4-1.9,0.6
					C37.4,31.2,36.4,31.4,35.7,31.9z"/>
			</g>
		</g>
	</g>
</g>
</svg>
