<?xml version="1.0" encoding="utf-8"?>
<!-- Generator: Adobe Illustrator 21.0.2, SVG Export Plug-In . SVG Version: 6.00 Build 0)  -->
<svg version="1.1" id="Livello_1" xmlns="http://www.w3.org/2000/svg" xmlns:xlink="http://www.w3.org/1999/xlink" x="0px" y="0px"
	 viewBox="0 0 56.5 52.8" style="enable-background:new 0 0 56.5 52.8;" xml:space="preserve">
<style type="text/css">
	.st0{fill:#73D7FF;}
	.st1{fill:#003575;}
</style>
<g>
	<g>
		<g>
			<circle class="st0" cx="42.6" cy="11.6" r="6.5"/>
		</g>
	</g>
	<g>
		<g>
			<g>
				<g>
					<path class="st1" d="M10.3,45.7c-2.1,0-3.8-1.7-3.8-3.8s1.7-3.8,3.8-3.8h19.7c1,0,1.9-0.8,1.9-1.9c0-1-0.8-1.9-1.9-1.9h-8.4
						c-2.1,0-3.8-1.7-3.8-3.8v-2.3c0-0.2-0.2-0.4-0.4-0.5c-6.2-0.7-10.8-5.9-10.8-12.1V6c0-0.5,0.4-0.9,0.9-0.9h4.2
						c0.3,0,0.5-0.2,0.5-0.5c0-0.5,0.4-0.9,0.9-0.9S14,4.1,14,4.6v2.8c0,0.5-0.4,0.9-0.9,0.9s-0.9-0.4-0.9-0.9
						c0-0.3-0.2-0.5-0.5-0.5H8.9C8.6,7,8.4,7.2,8.4,7.4v8.4c0,5.7,4.6,10.3,10.3,10.3c5.7,0,10.3-4.6,10.3-10.3V7.4
						C29,7.2,28.8,7,28.5,7h-2.8c-0.3,0-0.5,0.2-0.5,0.5c0,0.5-0.4,0.9-0.9,0.9c-0.5,0-0.9-0.4-0.9-0.9V4.6c0-0.5,0.4-0.9,0.9-0.9
						c0.5,0,0.9,0.4,0.9,0.9c0,0.3,0.2,0.5,0.5,0.5h4.2c0.5,0,0.9,0.4,0.9,0.9v9.8c0,6.2-4.7,11.4-10.8,12.1c-0.2,0-0.4,0.2-0.4,0.5
						v2.3c0,1,0.8,1.9,1.9,1.9h8.4c2.1,0,3.8,1.7,3.8,3.8s-1.7,3.8-3.8,3.8H10.3c-1,0-1.9,0.8-1.9,1.9c0,1,0.8,1.9,1.9,1.9h29.5
						c1,0,1.9-0.8,1.9-1.9V20.1c0,0,0-0.1,0-0.1c0-0.2-0.1-0.5-0.4-0.5c-3.8-0.6-6.6-3.9-6.6-7.9c0-4.4,3.6-8,8-8c4.4,0,8,3.6,8,8
						c0,3.9-2.8,7.2-6.6,7.9c-0.2,0-0.4,0.3-0.4,0.5c0,0,0,0.1,0,0.1v21.9c0,2.1-1.7,3.8-3.8,3.8H10.3z M42.6,5.6
						c-3.4,0-6.1,2.7-6.1,6.1s2.7,6.1,6.1,6.1c3.4,0,6.1-2.7,6.1-6.1S45.9,5.6,42.6,5.6z"/>
				</g>
			</g>
		</g>
		<g>
			<g>
				<g>
					<rect x="41.6" y="10.7" class="st1" width="1.9" height="1.9"/>
				</g>
			</g>
		</g>
	</g>
</g>
</svg>
