<?xml version="1.0" encoding="utf-8"?>
<!-- Generator: Adobe Illustrator 21.0.2, SVG Export Plug-In . SVG Version: 6.00 Build 0)  -->
<svg version="1.1" id="Livello_1" xmlns="http://www.w3.org/2000/svg" xmlns:xlink="http://www.w3.org/1999/xlink" x="0px" y="0px"
	 viewBox="0 0 56.5 52.8" style="enable-background:new 0 0 56.5 52.8;" xml:space="preserve">
<style type="text/css">
	.st0{fill:#73D7FF;}
	.st1{fill:#003575;}
</style>
<g>
	<g>
		<path class="st0" d="M47.8,43H7.6c-0.6,0-1-0.4-1-1V9.1c0-0.6,0.4-1,1-1h40.2c0.6,0,1,0.4,1,1V42C48.8,42.5,48.4,43,47.8,43z
			 M8.6,41h38.2V10.1H8.6V41z"/>
	</g>
	<g>
		<g>
			<rect x="10.5" y="36.9" class="st0" width="10.2" height="2"/>
		</g>
		<g>
			<rect x="22.6" y="36.9" class="st0" width="2.5" height="2"/>
		</g>
	</g>
	<g>
		<path class="st1" d="M51.7,46.9H3.7c-0.6,0-1-0.4-1-1V5.2c0-0.6,0.4-1,1-1h47.9c0.6,0,1,0.4,1,1v40.7
			C52.7,46.4,52.2,46.9,51.7,46.9z M4.7,44.9h45.9V6.2H4.7V44.9z"/>
	</g>
	<g>
		<g>
			<rect x="26.7" y="12.4" class="st1" width="2" height="21.6"/>
		</g>
		<g>
			<g>
				<path class="st1" d="M22.2,19.4c-3.7,0-6.5-2.1-6.5-4.9h2c0,1.5,2.1,2.9,4.5,2.9c2.5,0,4.5-1.3,4.5-2.9h2
					C28.7,17.3,25.8,19.4,22.2,19.4z"/>
			</g>
			<g>
				<path class="st1" d="M33.3,19.4c-3.7,0-6.5-2.1-6.5-4.9h2c0,1.5,2.1,2.9,4.5,2.9s4.5-1.3,4.5-2.9h2
					C39.8,17.3,36.9,19.4,33.3,19.4z"/>
			</g>
		</g>
		<g>
			<g>
				<g>
					<path class="st1" d="M21,26.7c-3,0-5.6-1.2-6.9-3.2l1.7-1.1c0.9,1.4,3,2.3,5.3,2.3c3.1,0,5.7-1.7,5.7-3.7h2
						C28.7,24.3,25.3,26.7,21,26.7z"/>
				</g>
			</g>
			<g>
				<g>
					<path class="st1" d="M34.4,26.7c-4.3,0-7.7-2.5-7.7-5.7h2c0,2,2.6,3.7,5.7,3.7c2.3,0,4.4-0.9,5.3-2.3l1.7,1.1
						C40.1,25.5,37.4,26.7,34.4,26.7z"/>
				</g>
			</g>
		</g>
		<g>
			<g>
				<g>
					<path class="st1" d="M21,23c-3,0-5.6-1.2-6.9-3.2l1.7-1.1c0.9,1.4,3,2.3,5.3,2.3c3.1,0,5.7-1.7,5.7-3.7h2
						C28.7,20.5,25.3,23,21,23z"/>
				</g>
			</g>
			<g>
				<g>
					<path class="st1" d="M34.4,23c-4.3,0-7.7-2.5-7.7-5.7h2c0,2,2.6,3.7,5.7,3.7c2.3,0,4.4-0.9,5.3-2.3l1.7,1.1
						C40.1,21.8,37.4,23,34.4,23z"/>
				</g>
			</g>
		</g>
		<g>
			<g>
				<path class="st1" d="M21,30.2c-1.8,0-3.4-0.4-4.8-1.1l0.9-1.8c1.1,0.6,2.4,0.9,3.9,0.9c3.1,0,5.7-1.5,5.7-3.2h2
					C28.7,27.9,25.3,30.2,21,30.2z"/>
			</g>
			<g>
				<path class="st1" d="M34.4,30.2c-4.3,0-7.7-2.3-7.7-5.2h2c0,1.7,2.6,3.2,5.7,3.2c1.4,0,2.8-0.3,3.9-0.9l0.9,1.8
					C37.9,29.8,36.2,30.2,34.4,30.2z"/>
			</g>
		</g>
		<g>
			<g>
				<path class="st1" d="M35.4,35.4h-2c0-1.4-1-2.4-2.3-2.4s-2.3,1.1-2.3,2.4h-2c0-2.5,1.9-4.4,4.3-4.4S35.4,32.9,35.4,35.4z"/>
			</g>
			<g>
				<path class="st1" d="M28.7,35.4h-2c0-1.4-1-2.4-2.3-2.4S22,34,22,35.4h-2c0-2.5,1.9-4.4,4.3-4.4S28.7,32.9,28.7,35.4z"/>
			</g>
		</g>
		<g>
			<rect x="26.2" y="12" class="st1" width="3" height="2"/>
		</g>
	</g>
</g>
</svg>
