<?xml version="1.0" encoding="utf-8"?>
<!-- Generator: Adobe Illustrator 21.0.2, SVG Export Plug-In . SVG Version: 6.00 Build 0)  -->
<svg version="1.1" id="Livello_1" xmlns="http://www.w3.org/2000/svg" xmlns:xlink="http://www.w3.org/1999/xlink" x="0px" y="0px"
	 viewBox="0 0 56.5 52.8" style="enable-background:new 0 0 56.5 52.8;" xml:space="preserve">
<style type="text/css">
	.st0{fill:#73D7FF;}
	.st1{fill:#FFFFFF;}
	.st2{fill:#003575;}
	.st3{fill:#1E3A6D;}
	.st4{opacity:0.3;}
	.st5{fill:#73C1DD;}
	.st6{fill:#FFE576;}
</style>
<g>
	<g>
		<g>
			<g>
				<rect x="4.5" y="8.6" class="st0" width="31.6" height="22.3"/>
			</g>
		</g>
	</g>
	<g>
		<g>
			<polygon class="st1" points="26.6,17.5 22.4,17.5 22.4,13.3 18.3,13.3 18.3,17.5 14.1,17.5 14.1,21.6 18.3,21.6 18.3,25.7 
				22.4,25.7 22.4,21.6 26.6,21.6 			"/>
		</g>
	</g>
	<g>
		<g>
			<g>
				<path class="st2" d="M34.3,7.3c-0.2,0-0.3-0.2-0.3-0.4V5.8c0-0.4-0.3-0.7-0.7-0.7s-0.7,0.3-0.7,0.7v1.1c0,0.2-0.2,0.4-0.4,0.4
					H30c-0.2,0-0.4-0.2-0.4-0.4V4.7c0-1.6-1.3-2.9-2.9-2.9H13.9c-1.6,0-2.9,1.3-2.9,2.9v2.1c0,0.2-0.2,0.4-0.4,0.4H8.5
					c-0.2,0-0.4-0.2-0.4-0.4V5.8c0-0.4-0.3-0.7-0.7-0.7C7,5.1,6.7,5.4,6.7,5.8v1.1c0,0.2-0.1,0.3-0.3,0.4c-1.6,0.1-2.9,1.4-2.9,3
					v21.4c0,0.4,0.3,0.7,0.7,0.7h32.2c0.4,0,0.7-0.3,0.7-0.7V10.2C37.2,8.6,35.9,7.3,34.3,7.3z M12.4,4.7c0-0.8,0.6-1.4,1.4-1.4
					h12.9c0.8,0,1.4,0.6,1.4,1.4v2.1c0,0.2-0.2,0.4-0.4,0.4h-15c-0.2,0-0.4-0.2-0.4-0.4V4.7z M35.7,30.5c0,0.2-0.2,0.4-0.4,0.4H5.3
					c-0.2,0-0.4-0.2-0.4-0.4V10.2c0-0.9,0.7-1.6,1.6-1.6h27.7c0.9,0,1.6,0.7,1.6,1.6V30.5z"/>
			</g>
		</g>
		<g>
			<g>
				<g>
					<g>
						<path class="st2" d="M18.2,27c-0.4,0-0.7-0.3-0.7-0.7V23c0-0.2-0.2-0.4-0.4-0.4h-3.2c-0.4,0-0.7-0.3-0.7-0.7v-4.3
							c0-0.4,0.3-0.7,0.7-0.7h3.2c0.2,0,0.4-0.2,0.4-0.4v-3.2c0-0.4,0.3-0.7,0.7-0.7h4.3c0.4,0,0.7,0.3,0.7,0.7v3.2
							c0,0.2,0.2,0.4,0.4,0.4h3.2c0.4,0,0.7,0.3,0.7,0.7v4.3c0,0.4-0.3,0.7-0.7,0.7h-3.2c-0.2,0-0.4,0.2-0.4,0.4v3.2
							c0,0.4-0.3,0.7-0.7,0.7H18.2z M14.9,18.4c-0.2,0-0.4,0.2-0.4,0.4v2.1c0,0.2,0.2,0.4,0.4,0.4h3.2c0.4,0,0.7,0.3,0.7,0.7v3.2
							c0,0.2,0.2,0.4,0.4,0.4h2.1c0.2,0,0.4-0.2,0.4-0.4v-3.2c0-0.4,0.3-0.7,0.7-0.7h3.2c0.2,0,0.4-0.2,0.4-0.4v-2.1
							c0-0.2-0.2-0.4-0.4-0.4h-3.2c-0.4,0-0.7-0.3-0.7-0.7v-3.2c0-0.2-0.2-0.4-0.4-0.4h-2.1c-0.2,0-0.4,0.2-0.4,0.4v3.2
							c0,0.4-0.3,0.7-0.7,0.7H14.9z"/>
					</g>
				</g>
			</g>
		</g>
	</g>
</g>
<g>
	<circle class="st1" cx="38.8" cy="36.3" r="15.9"/>
	<path class="st1" d="M38.8,52.7c-9,0-16.4-7.3-16.4-16.4s7.3-16.4,16.4-16.4s16.4,7.3,16.4,16.4S47.8,52.7,38.8,52.7z"/>
</g>
<g>
	<circle class="st1" cx="38.8" cy="36.3" r="13.3"/>
	<path class="st3" d="M38.8,50.3c-7.7,0-14-6.3-14-14s6.3-14,14-14s14,6.3,14,14S46.5,50.3,38.8,50.3z M38.8,23.8
		c-6.9,0-12.5,5.6-12.5,12.5s5.6,12.5,12.5,12.5s12.5-5.6,12.5-12.5S45.7,23.8,38.8,23.8z"/>
</g>
<g>
	<g>
		<g>
			<g>
				<path class="st2" d="M43.1,43.5c-2.8,1.4-5.7,1.1-6.5-0.7s0.6-4.2,3.4-5.6c2.8-1.4,5.7-1.1,6.5,0.7S45.9,42.2,43.1,43.5z
					 M40.5,38.5c-2.2,1.1-3.3,2.9-2.8,3.9s2.5,1.2,4.8,0.1c2.2-1.1,3.3-2.9,2.8-3.9C44.9,37.6,42.8,37.3,40.5,38.5z"/>
			</g>
		</g>
	</g>
	<g>
		<g>
			<path class="st2" d="M43.2,38.5L39,40.6c-0.3,0.1-0.6,0.1-0.8-0.2l-1.3-1.7l6.1-3l0.6,2C43.6,38.1,43.5,38.4,43.2,38.5z"/>
		</g>
	</g>
	<g class="st4">
		<g>
			<path class="st5" d="M43.4,37.3L43,35.7l-6.1,3l1,1.3c0.8-0.3,1.8-0.7,2.8-1.3C41.7,38.3,42.6,37.8,43.4,37.3z"/>
		</g>
	</g>
	<g>
		<g>
			<path class="st0" d="M46.6,31.4c-1.9-0.3-2.9,1.9-7.5,4.2c-4.6,2.3-7,1.7-7.8,3.4c-0.8,1.6,1.6,3.2,9.3-0.6
				C48.1,34.6,48.3,31.7,46.6,31.4z"/>
		</g>
		<g>
			<path class="st2" d="M33.1,41.1c-0.9,0-1.6-0.2-2-0.6c-0.4-0.4-0.5-1-0.2-1.6c0.5-1.1,1.6-1.3,3.1-1.8c1.3-0.4,2.8-0.8,4.9-1.8
				c2.1-1,3.3-2,4.4-2.8c1.3-1,2.1-1.6,3.3-1.4l0,0c0.6,0.1,1.1,0.5,1.2,1.1c0.3,1.8-2.4,4.2-7.1,6.6C37.5,40.3,34.9,41.1,33.1,41.1
				z M46.2,31.7c-0.7,0-1.4,0.5-2.5,1.3c-1,0.8-2.4,1.8-4.5,2.9c-2.1,1.1-3.8,1.5-5,1.9c-1.5,0.4-2.3,0.6-2.7,1.4
				c-0.1,0.2-0.2,0.6,0.1,0.8c0.6,0.6,3.1,0.9,8.7-1.9c5.6-2.8,6.9-5,6.8-5.9c-0.1-0.4-0.4-0.5-0.6-0.6l0,0
				C46.4,31.7,46.3,31.7,46.2,31.7z"/>
		</g>
	</g>
	<g>
		<g>
			<path class="st0" d="M39.1,35.6c-4.3,2.1-6.6,1.8-7.6,3.1c0.6,1,3.2,1.5,8.6-1.2c5.4-2.7,6.6-5,6.2-6.1
				C44.5,31.3,43.4,33.4,39.1,35.6z"/>
		</g>
		<g>
			<path class="st2" d="M33.5,39.8c-1.3,0-2-0.4-2.3-1L31,38.7l0.1-0.2c0.6-0.8,1.5-1,2.9-1.4c1.3-0.4,2.8-0.8,4.9-1.8
				c2.1-1,3.3-2,4.4-2.8c1.1-0.8,1.9-1.4,2.9-1.4c0,0,0,0,0,0h0.2l0.1,0.2c0.6,1.3-0.7,3.8-6.3,6.6C37.2,39.3,35,39.8,33.5,39.8z
				 M31.9,38.7c0.7,0.7,3.3,0.8,8-1.6s6.2-4.5,6.1-5.5c-0.7,0.1-1.3,0.6-2.2,1.3c-1,0.8-2.4,1.8-4.5,2.9c-2.1,1.1-3.8,1.5-5,1.9
				C33.1,38,32.4,38.2,31.9,38.7z"/>
		</g>
	</g>
	<g>
		<g>
			<path class="st0" d="M40.2,29.1c-0.9-1.9-3.2-2.7-5.2-1.7c-2,1-2.7,3.3-1.8,5.2c0.5,0.9,1.4,1.6,2.3,2.1c0.9,0.5,1.5,1.2,2,2.2
				l0.4,0.8c0.7-0.2,1.3-0.4,1.9-0.7c0.6-0.3,1.2-0.7,1.7-1.1l-0.4-0.8c-0.5-0.9-0.7-1.9-0.5-2.9C40.7,31.2,40.7,30.1,40.2,29.1z"/>
		</g>
	</g>
	<g>
		<g>
			<ellipse transform="matrix(0.3174 -0.9483 0.9483 0.3174 -4.879 53.3382)" class="st6" cx="34.6" cy="30.1" rx="1.7" ry="0.9"/>
		</g>
	</g>
</g>
</svg>
