<?xml version="1.0" encoding="utf-8"?>
<!-- Generator: Adobe Illustrator 21.0.2, SVG Export Plug-In . SVG Version: 6.00 Build 0)  -->
<svg version="1.1" id="Livello_1" xmlns="http://www.w3.org/2000/svg" xmlns:xlink="http://www.w3.org/1999/xlink" x="0px" y="0px"
	 viewBox="0 0 40 40" style="enable-background:new 0 0 40 40;" xml:space="preserve">
<style type="text/css">
	.st0{fill:#FFFFFF;}
	.st1{fill:#1E3A6D;}
	.st2{fill:#7ECEF5;}
	.st3{fill:none;}
</style>
<g>
	<g>
		<path class="st0" d="M32.6,26.1l-1-0.7h-2.3l-2.6-0.9l-0.6-1.1l-0.9-1.1c-1.4,1.5-3.5,2.4-5.7,2.4s-4.3-0.9-5.7-2.5l-0.1,1.3
			L10.5,25l-3,0.3L5.9,27L4.7,37.7h29.9v-2.8v-4L32.6,26.1z"/>
	</g>
</g>
<g>
	<g>
		<g>
			<ellipse class="st0" cx="19.6" cy="11.5" rx="5.6" ry="8.1"/>
		</g>
	</g>
	<g>
		<g>
			<g>
				<path class="st1" d="M19.6,20.3c-3.7,0-6.5-4.4-6.5-10c0-6.9,4.6-7.7,6.5-7.7c2,0,6.5,0.7,6.5,7.7
					C26.2,15.9,23.3,20.3,19.6,20.3z M19.6,4.2c-2.3,0-5,1.1-5,6.1c0,4.6,2.3,8.4,5,8.4s5-3.9,5-8.4C24.6,5.3,21.9,4.2,19.6,4.2z"/>
			</g>
		</g>
		<g>
			<g>
				<path class="st1" d="M4.8,38.7c-0.4,0-0.7-0.3-0.8-0.7c-0.3-3.6-0.1-10.2,2-12.5c0.6-0.6,1.3-1,2.1-1h0.7c1.7,0,3.1-0.1,4.4-2
					c0.1-0.2,0.4-0.3,0.6-0.3c0.2,0,0.3,0,0.4,0.1c0.2,0.1,0.3,0.3,0.3,0.5s0,0.4-0.1,0.6c-1.7,2.4-3.8,2.6-5.6,2.6
					c-0.1,0-0.3,0-0.4,0H8c-0.2,0-0.6,0-1,0.5C5.7,28.1,5.4,33,5.5,36.8c0,0.2,0.2,0.4,0.4,0.4h3.4c0.2,0,0.4-0.2,0.4-0.4v-4.6
					c0-0.4,0.3-0.8,0.8-0.8c0.4,0,0.8,0.3,0.8,0.8v4.6c0,0.2,0.2,0.4,0.4,0.4h16c0.2,0,0.4-0.2,0.4-0.4v-4.6c0-0.4,0.3-0.8,0.8-0.8
					c0.4,0,0.8,0.3,0.8,0.8v4.6c0,0.2,0.2,0.4,0.4,0.4h3.5c0.2,0,0.4-0.2,0.4-0.4c0.2-3.8-0.2-8.7-1.7-10.3c-0.4-0.4-0.8-0.5-1-0.5
					h-0.4c-0.1,0-0.3,0-0.4,0c-1.8,0-3.9-0.2-5.6-2.6c-0.1-0.2-0.2-0.4-0.1-0.6c0-0.2,0.2-0.4,0.3-0.5c0.1-0.1,0.3-0.1,0.4-0.1
					c0.3,0,0.5,0.1,0.6,0.3c1.3,1.8,2.7,2,4.4,2h0.7c0.8,0,1.5,0.3,2.1,1c2.1,2.3,2.3,9,2,12.5c0,0.4-0.4,0.7-0.8,0.7H4.8z"/>
			</g>
		</g>
	</g>
</g>
<g>
	<polyline class="st0" points="32.7,21.1 24.5,21.1 23.6,21.6 23.2,22.8 23.2,38.4 37.1,38.4 37.1,26 	"/>
	<rect x="20.4" y="25.6" class="st0" width="10.9" height="12.7"/>
	<g>
		<g>
			<g>
				<polyline class="st0" points="23.9,21.4 32.4,21.2 32.6,23.5 37.1,26 37.1,38 				"/>
			</g>
		</g>
		<g>
			<g>
				<polygon class="st2" points="36.9,25.6 32.7,21.4 32.7,25.6 				"/>
			</g>
		</g>
		<g>
			<g>
				<g>
					<g>
						<path class="st1" d="M19.9,38h16.4c0.4,0,0.6-0.3,0.6-0.8V26.3c0-0.1-0.1-0.2-0.2-0.2h-3c-0.7,0-1.4-0.6-1.4-1.2v-3.1
							c0-0.1-0.1-0.2-0.2-0.2h-7.6c-0.3,0-0.6,0.3-0.6,0.4l0,0v3c0,0.2-0.2,0.4-0.4,0.4s-0.4-0.2-0.4-0.4v-3c0-0.6,0.7-1.2,1.4-1.2
							h8.2h0.1c0.1,0,0.1,0,0.1,0l0,0l0,0c0.1,0,0.1,0.1,0.1,0.1l4.6,4.6c0.1,0.1,0.1,0.1,0.1,0.1l0,0l0,0c0,0.1,0,0.1,0,0.1v0.1
							v11.4c0,0.9-0.6,1.6-1.4,1.6H19.9 M33.2,22.4L33.2,22.4c-0.1,0.1-0.2,0.1-0.2,0.2V25c0,0,0,0,0,0.1c0,0.2,0.3,0.4,0.6,0.4h2.2
							c0.1,0,0.2-0.1,0.2-0.1c0.1-0.1,0-0.2-0.1-0.2l-2.7-2.6C33.3,22.4,33.3,22.4,33.2,22.4z"/>
					</g>
				</g>
			</g>
			<g>
				<g>
					<g>
						<path class="st1" d="M25.2,26.5"/>
					</g>
				</g>
			</g>
		</g>
	</g>
	<g>
		<g>
			<line class="st3" x1="22.7" y1="37.5" x2="23" y2="37.4"/>
		</g>
		<g>
			<g>
				<line class="st3" x1="20.2" y1="31.6" x2="20.1" y2="38.1"/>
			</g>
		</g>
		<g>
			<g>
				<g>
					<g>
						<path class="st1" d="M19.9,38.1L20,31v-4.8c0-0.6,0.5-1.1,1.1-1.1h10.1c0.6,0,1.1,0.5,1.1,1.1v12.1c0,0.2-0.2,0.4-0.4,0.4
							c-0.2,0-0.4-0.2-0.4-0.4V26.2c0-0.2-0.2-0.3-0.3-0.3H21c-0.2,0-0.3,0.2-0.3,0.3v12.2"/>
					</g>
				</g>
			</g>
			<g>
				<g>
					<g>
						<path class="st2" d="M24.9,28.2c-0.2,0-0.4-0.2-0.4-0.4s0.2-0.4,0.4-0.4h2.3c0.2,0,0.4,0.2,0.4,0.4s-0.2,0.4-0.4,0.4H24.9z"/>
					</g>
				</g>
			</g>
			<g>
				<g>
					<g>
						<path class="st2" d="M23.2,30.5c-0.2,0-0.4-0.2-0.4-0.4c0-0.2,0.2-0.4,0.4-0.4h5.7c0.2,0,0.4,0.2,0.4,0.4s-0.2,0.4-0.4,0.4
							H23.2z"/>
					</g>
				</g>
			</g>
			<g>
				<g>
					<g>
						<path class="st2" d="M23.2,35.3c-0.2,0-0.4-0.2-0.4-0.4s0.2-0.4,0.4-0.4h5.7c0.2,0,0.4,0.2,0.4,0.4s-0.2,0.4-0.4,0.4H23.2z"/>
					</g>
				</g>
			</g>
			<g>
				<g>
					<g>
						<path class="st2" d="M23.2,32.8c-0.2,0-0.4-0.2-0.4-0.4S23,32,23.2,32h3.4c0.2,0,0.4,0.2,0.4,0.4s-0.2,0.4-0.4,0.4H23.2z"/>
					</g>
				</g>
			</g>
		</g>
	</g>
</g>
</svg>
