<?xml version="1.0" encoding="utf-8"?>
<!-- Generator: Adobe Illustrator 21.0.2, SVG Export Plug-In . SVG Version: 6.00 Build 0)  -->
<svg version="1.1" id="Livello_1" xmlns="http://www.w3.org/2000/svg" xmlns:xlink="http://www.w3.org/1999/xlink" x="0px" y="0px"
	 viewBox="0 0 56.5 52.8" style="enable-background:new 0 0 56.5 52.8;" xml:space="preserve">
<style type="text/css">
	.st0{fill:#73D7FF;}
	.st1{fill:#FFFFFF;}
	.st2{fill:#003575;}
</style>
<g>
	<g>
		<g>
			<polygon class="st0" points="17.5,45.4 13.6,46.7 9.6,45.4 8.8,27.4 18.4,27.4 			"/>
		</g>
	</g>
	<g>
		<g>
			<rect x="8.8" y="6.8" class="st1" width="9.1" height="20.1"/>
		</g>
	</g>
	<g>
		<g>
			<rect x="29.7" y="6.8" class="st1" width="12.4" height="20.1"/>
		</g>
	</g>
	<g>
		<g>
			<polygon class="st0" points="29.7,27.8 22.2,46 23.8,47.3 48.7,47.3 49.3,45.3 42,27.8 			"/>
		</g>
	</g>
	<g>
		<g>
			<g>
				<g>
					<path class="st2" d="M23.5,47.9c-1.2,0-2.2-1-2.2-2.2c0-0.1,0-0.2,0.1-0.4c2.7-6.5,6.8-16.6,7.4-18.1c0,0,0-0.1,0-0.2V8.5
						c0,0,0,0,0-0.1c0,0,0-0.1,0-0.1c0-0.1,0-0.3-0.1-0.3c-0.1-0.1-0.2-0.1-0.3-0.1h-1.4c-0.5,0-0.9-0.4-0.9-0.9s0.4-0.9,0.9-0.9
						h18.2c0.5,0,0.9,0.4,0.9,0.9s-0.4,0.9-0.9,0.9h-1.4c-0.1,0-0.3,0.1-0.3,0.1c-0.1,0.1-0.1,0.2-0.1,0.3c0,0,0,0.1,0,0.1
						c0,0,0,0,0,0.1v18.7c0,0,0,0.1,0,0.1c0.5,1.5,4.5,11.9,6.9,18.1c0,0.1,0.1,0.2,0.1,0.3c0,1.2-1,2.2-2.2,2.2H23.5z M30.7,28.3
						c-0.2,0-0.4,0.1-0.4,0.3c-0.8,2.1-3,7.4-6.8,16.8c-0.1,0.1,0,0.3,0,0.4c0.1,0.1,0.2,0.2,0.4,0.2h23.9c0.2,0,0.3-0.1,0.4-0.2
						c0.1-0.1,0.1-0.3,0-0.4c-3.6-9.4-5.7-14.7-6.4-16.8c-0.1-0.2-0.2-0.3-0.4-0.3H30.7z M31.1,23.6c-0.3,0-0.5,0.2-0.5,0.5v1.8
						c0,0.3,0.2,0.5,0.5,0.5h9.8c0.3,0,0.5-0.2,0.5-0.5V8.5c0-0.4-0.3-0.7-0.7-0.7h-9.4c-0.4,0-0.7,0.3-0.7,0.7v1.6
						c0,0.3,0.2,0.5,0.5,0.5h2.8c0.5,0,0.9,0.4,0.9,0.9c0,0.5-0.4,0.9-0.9,0.9h-2.8c-0.3,0-0.5,0.2-0.5,0.5v2.8
						c0,0.3,0.2,0.5,0.5,0.5h2.8c0.5,0,0.9,0.4,0.9,0.9c0,0.5-0.4,0.9-0.9,0.9h-2.8c-0.3,0-0.5,0.2-0.5,0.5v2.8
						c0,0.3,0.2,0.5,0.5,0.5h2.8c0.5,0,0.9,0.4,0.9,0.9c0,0.5-0.4,0.9-0.9,0.9H31.1z"/>
				</g>
			</g>
		</g>
		<g>
			<g>
				<g>
					<path class="st2" d="M13.6,47.9c-3.2,0-5.9-2.6-5.9-5.9V8.3c0-0.3-0.2-0.5-0.5-0.5c-0.5,0-0.9-0.4-0.9-0.9s0.4-0.9,0.9-0.9
						h12.6c0.5,0,0.9,0.4,0.9,0.9s-0.4,0.9-0.9,0.9c-0.3,0-0.5,0.2-0.5,0.5V42C19.4,45.3,16.8,47.9,13.6,47.9z M10,28.3
						c-0.3,0-0.5,0.2-0.5,0.5V42c0,2.2,1.8,4,4,4c2.2,0,4-1.8,4-4V28.7c0-0.3-0.2-0.5-0.5-0.5H10z M10,23.6c-0.3,0-0.5,0.2-0.5,0.5
						v1.8c0,0.3,0.2,0.5,0.5,0.5h7c0.3,0,0.5-0.2,0.5-0.5V8.3c0-0.3-0.2-0.5-0.5-0.5h-7C9.8,7.8,9.6,8,9.6,8.3v1.8
						c0,0.3,0.2,0.5,0.5,0.5h2.8c0.5,0,0.9,0.4,0.9,0.9c0,0.5-0.4,0.9-0.9,0.9H10c-0.3,0-0.5,0.2-0.5,0.5v2.8c0,0.3,0.2,0.5,0.5,0.5
						h2.8c0.5,0,0.9,0.4,0.9,0.9c0,0.5-0.4,0.9-0.9,0.9H10c-0.3,0-0.5,0.2-0.5,0.5v2.8c0,0.3,0.2,0.5,0.5,0.5h2.8
						c0.5,0,0.9,0.4,0.9,0.9c0,0.5-0.4,0.9-0.9,0.9H10z"/>
				</g>
			</g>
		</g>
		<g>
			<g>
				<g>
					<rect x="33" y="39" class="st2" width="1.9" height="1.9"/>
				</g>
			</g>
		</g>
		<g>
			<g>
				<g>
					<rect x="37.2" y="39" class="st2" width="1.9" height="1.9"/>
				</g>
			</g>
		</g>
		<g>
			<g>
				<g>
					<rect x="33" y="33.4" class="st2" width="1.9" height="1.9"/>
				</g>
			</g>
		</g>
		<g>
			<g>
				<g>
					<rect x="37.2" y="33.4" class="st2" width="1.9" height="1.9"/>
				</g>
			</g>
		</g>
	</g>
</g>
</svg>
