<?xml version="1.0" encoding="utf-8"?>
<!-- Generator: Adobe Illustrator 24.0.3, SVG Export Plug-In . SVG Version: 6.00 Build 0)  -->
<svg version="1.1" id="Livello_1" xmlns="http://www.w3.org/2000/svg" xmlns:xlink="http://www.w3.org/1999/xlink" x="0px" y="0px"
	 viewBox="0 0 40 40" style="enable-background:new 0 0 40 40;" xml:space="preserve">
<style type="text/css">
	.st0{fill:#FFFFFF;}
	.st1{fill:#1E3A6D;}
	.st2{fill:#7ECEF5;}
</style>
<title>img_consensi</title>
<desc>Created with Sketch.</desc>
<g id="Livello_2_1_">
	<g id="Layer_1">
		<rect x="3" y="7.7" class="st0" width="32.8" height="27.6"/>
		<rect x="10.1" y="15.5" class="st1" width="1.4" height="1.4"/>
		<rect x="14.5" y="15.5" class="st1" width="1.4" height="1.4"/>
		<rect x="18.8" y="15.5" class="st1" width="1.4" height="1.4"/>
		<rect x="23.2" y="15.5" class="st1" width="1.4" height="1.4"/>
		<rect x="27.6" y="15.5" class="st1" width="1.4" height="1.4"/>
		<rect x="10.1" y="19.9" class="st1" width="1.4" height="1.4"/>
		<rect x="14.5" y="19.9" class="st1" width="1.4" height="1.4"/>
		<rect x="18.8" y="19.9" class="st1" width="1.4" height="1.4"/>
		<rect x="23.2" y="19.9" class="st1" width="1.4" height="1.4"/>
		<rect x="27.6" y="19.9" class="st1" width="1.4" height="1.4"/>
		<rect x="10.1" y="24.4" class="st1" width="1.4" height="1.4"/>
		<rect x="14.5" y="24.4" class="st1" width="1.4" height="1.4"/>
		<rect x="18.3" y="23.8" class="st2" width="2.5" height="2.5"/>
		<rect x="23.2" y="24.4" class="st1" width="1.4" height="1.4"/>
		<rect x="27.6" y="24.4" class="st1" width="1.4" height="1.4"/>
		<rect x="10.1" y="28.7" class="st1" width="1.4" height="1.4"/>
		<rect x="14.5" y="28.7" class="st1" width="1.4" height="1.4"/>
		<rect x="18.8" y="28.7" class="st1" width="1.4" height="1.4"/>
		<rect x="23.2" y="28.7" class="st1" width="1.4" height="1.4"/>
		<path class="st1" d="M3.2,36.7c-0.4,0-0.8-0.3-0.8-0.8V7.2c0-0.4,0.3-0.8,0.8-0.8l0,0h4.4c0.2,0,0.3-0.2,0.3-0.3V4.7
			c0-0.4,0.3-0.8,0.8-0.8c0.4,0,0.8,0.3,0.8,0.8v1.4c0,0.2,0.1,0.3,0.3,0.3l0,0H12c0.2,0,0.3-0.1,0.3-0.3l0,0V4.7
			c0-0.4,0.3-0.8,0.8-0.8c0.4,0,0.8,0.3,0.8,0.8v1.4c0,0.2,0.1,0.3,0.3,0.3l0,0h2.2c0.2,0,0.3-0.1,0.3-0.3V4.7
			c0-0.4,0.3-0.8,0.8-0.8c0.4,0,0.8,0.3,0.8,0.8v1.4c0,0.2,0.1,0.3,0.3,0.3h2.2c0.2,0,0.3-0.1,0.3-0.3V4.7c0-0.4,0.3-0.8,0.8-0.8
			c0.4,0,0.8,0.3,0.8,0.8v1.4c0,0.2,0.1,0.3,0.3,0.3h2.2c0.2,0,0.3-0.1,0.3-0.3V4.7c0-0.4,0.3-0.8,0.8-0.8c0.4,0,0.8,0.3,0.8,0.8
			v1.4c0,0.2,0.1,0.3,0.3,0.3h2.2c0.2,0,0.3-0.1,0.3-0.3V4.7c0-0.4,0.3-0.8,0.8-0.8c0.4,0,0.8,0.3,0.8,0.8v1.4
			c0,0.2,0.1,0.3,0.3,0.3H36c0.4,0,0.8,0.3,0.8,0.8v28.7c0,0.4-0.3,0.8-0.8,0.8L3.2,36.7z M4.3,8C4.1,8,4,8.1,4,8.3l0,0v26.5
			c0,0.2,0.1,0.3,0.3,0.3h30.6c0.2,0,0.3-0.1,0.3-0.3V8.3c0-0.2-0.1-0.3-0.3-0.3h-3.3c-0.2,0-0.3,0.1-0.3,0.3v1.4
			c0,0.4-0.3,0.8-0.8,0.8s-0.8-0.3-0.8-0.8l0,0V8.3c0-0.2-0.1-0.3-0.3-0.3h-2.2c-0.2,0-0.3,0.1-0.3,0.3v1.4c0,0.4-0.3,0.8-0.8,0.8
			c-0.4,0-0.8-0.3-0.8-0.8l0,0V8.3c0-0.2-0.1-0.3-0.3-0.3l0,0h-2.2c-0.2,0-0.3,0.1-0.3,0.3v1.4c0,0.4-0.3,0.8-0.8,0.8
			c-0.4,0-0.8-0.3-0.8-0.8l0,0V8.3C21,8.1,20.9,8,20.7,8h-2.2c-0.2,0-0.3,0.1-0.3,0.3v1.4c0,0.4-0.3,0.8-0.8,0.8
			c-0.4,0-0.8-0.3-0.8-0.8l0,0V8.3c0-0.2-0.1-0.3-0.3-0.3h-2.2c-0.2,0-0.3,0.1-0.3,0.3l0,0v1.4c0,0.4-0.3,0.8-0.8,0.8
			c-0.4,0-0.8-0.3-0.8-0.8l0,0V8.3C12.3,8.1,12.2,8,12,8l0,0H9.8C9.6,8,9.4,8.1,9.4,8.3l0,0v1.4c0,0.4-0.3,0.8-0.8,0.8
			c-0.4,0-0.8-0.3-0.8-0.8V8.3C7.9,8.1,7.8,8,7.6,8l0,0H4.3z"/>
	</g>
</g>
</svg>
