<?xml version="1.0" encoding="utf-8"?>
<!-- Generator: Adobe Illustrator 21.0.2, SVG Export Plug-In . SVG Version: 6.00 Build 0)  -->
<svg version="1.1" id="Livello_1" xmlns="http://www.w3.org/2000/svg" xmlns:xlink="http://www.w3.org/1999/xlink" x="0px" y="0px"
	 viewBox="0 0 56.5 52.8" style="enable-background:new 0 0 56.5 52.8;" xml:space="preserve">
<style type="text/css">
	.st0{fill:#FFFFFF;}
	.st1{fill:#003575;}
	.st2{fill:#1E3A6D;}
	.st3{fill:#73D7FF;}
</style>
<rect x="33.1" y="3" class="st0" width="18.7" height="21"/>
<g>
	<g>
		<g>
			<g>
				<g>
					<path class="st1" d="M34.8,46.4c-0.5,0-0.9-0.4-0.9-0.9c0-0.5,0.4-0.9,0.9-0.9c7.9,0,14.4-6.5,14.5-14.5c0-0.5,0.4-0.9,0.9-0.9
						c0.5,0,0.9,0.4,0.9,0.9C51.1,39,43.7,46.4,34.8,46.4z"/>
				</g>
			</g>
		</g>
		<g>
			<g>
				<g>
					<path class="st1" d="M10.9,23.9c-0.2,0-0.5-0.1-0.7-0.3c-0.2-0.2-0.3-0.4-0.3-0.7c0.1-9,7.4-16.4,16.4-16.4
						c0.5,0,0.9,0.4,0.9,0.9s-0.4,0.9-0.9,0.9c-7.8,0-14.4,6.6-14.5,14.5C11.8,23.5,11.4,23.9,10.9,23.9L10.9,23.9z"/>
				</g>
			</g>
		</g>
	</g>
</g>
<path class="st2" d="M32.9,2c-0.3,0-0.5,0.3-0.5,0.5v8.6v13c0,0.3,0.3,0.5,0.5,0.5h18.8c0.3,0,0.5-0.3,0.5-0.5v-13V2.5
	C52.3,2.2,52,2,51.8,2 M33.7,23.5c-0.1,0-0.3-0.1-0.3-0.3v-20c0-0.1,0.1-0.3,0.3-0.3H51c0.1,0,0.3,0.1,0.3,0.3v20l0,0
	c0,0.1-0.2,0.3-0.3,0.3"/>
<rect x="40.7" y="20.7" class="st2" width="3.3" height="3.3"/>
<g>
	<rect x="43.2" y="14.4" class="st2" width="1" height="1"/>
	<rect x="43.2" y="17.4" class="st2" width="1" height="1"/>
	<rect x="43.2" y="11.3" class="st2" width="1" height="1"/>
	<rect x="45.8" y="14.4" class="st2" width="1" height="1"/>
	<rect x="45.8" y="17.4" class="st2" width="1" height="1"/>
	<rect x="45.8" y="11.3" class="st2" width="1" height="1"/>
	<rect x="48.5" y="14.4" class="st2" width="1" height="1"/>
	<rect x="48.5" y="17.4" class="st2" width="1" height="1"/>
	<rect x="48.5" y="11.3" class="st2" width="1" height="1"/>
	<rect x="35.2" y="14.4" class="st2" width="1" height="1"/>
	<rect x="35.2" y="17.4" class="st2" width="1" height="1"/>
	<rect x="35.2" y="11.3" class="st2" width="1" height="1"/>
	<rect x="37.9" y="14.4" class="st2" width="1" height="1"/>
	<rect x="37.9" y="17.4" class="st2" width="1" height="1"/>
	<rect x="37.9" y="11.3" class="st2" width="1" height="1"/>
	<rect x="40.5" y="14.4" class="st2" width="1" height="1"/>
	<rect x="40.5" y="17.4" class="st2" width="1" height="1"/>
	<rect x="40.5" y="11.3" class="st2" width="1" height="1"/>
</g>
<g>
	<polygon class="st3" points="44.8,5.9 43.3,5.9 43.3,4.4 41.6,4.4 41.6,5.9 40.1,5.9 40.1,7.6 41.6,7.6 41.6,9.1 43.3,9.1 
		43.3,7.6 44.8,7.6 	"/>
</g>
<g>
	<g>
		<polygon class="st3" points="25.3,29 23,29 23,26.7 20.2,26.7 20.2,29 17.8,29 17.8,31.8 20.2,31.8 20.2,34.1 23,34.1 23,31.8 
			25.3,31.8 		"/>
	</g>
	<g>
		<g>
			<rect x="4.4" y="29.9" class="st3" width="9.2" height="20"/>
		</g>
	</g>
	<g>
		<g>
			<rect x="14" y="37.6" class="st0" width="13.7" height="12.4"/>
		</g>
	</g>
	<g>
		<g>
			<g>
				<g>
					<path class="st1" d="M4.3,50.5c-0.3,0-0.5-0.2-0.5-0.5V29.7c0-0.3,0.2-0.5,0.5-0.5h9.4c0.3,0,0.5,0.2,0.5,0.5v7
						c0,0.1,0.1,0.3,0.3,0.3h6.2c0.1,0,0.3-0.1,0.3-0.3v-1.6c0-0.1-0.1-0.3-0.3-0.3h-0.8c-0.3,0-0.5-0.2-0.5-0.5v-1.6
						c0-0.1-0.1-0.3-0.3-0.3h-1.6c-0.3,0-0.5-0.2-0.5-0.5v-3.1c0-0.3,0.2-0.5,0.5-0.5h1.6c0.1,0,0.3-0.1,0.3-0.3v-1.6
						c0-0.3,0.2-0.5,0.5-0.5H23c0.3,0,0.5,0.2,0.5,0.5v1.6c0,0.1,0.1,0.3,0.3,0.3h1.6c0.3,0,0.5,0.2,0.5,0.5v3.1
						c0,0.3-0.2,0.5-0.5,0.5h-1.6c-0.1,0-0.3,0.1-0.3,0.3v1.6c0,0.3-0.2,0.5-0.5,0.5h-0.8c-0.1,0-0.3,0.1-0.3,0.3v1.6
						c0,0.1,0.1,0.3,0.3,0.3h5.5c0.3,0,0.5,0.2,0.5,0.5V50c0,0.3-0.2,0.5-0.5,0.5H4.3z M24.6,46.4c0.3,0,0.5,0.2,0.5,0.5v2.3
						c0,0.1,0.1,0.3,0.3,0.3h1.6c0.1,0,0.3-0.1,0.3-0.3V38.3c0-0.1-0.1-0.3-0.3-0.3H14.5c-0.1,0-0.3,0.1-0.3,0.3v10.9
						c0,0.1,0.1,0.3,0.3,0.3H16c0.1,0,0.3-0.1,0.3-0.3v-2.3c0-0.3,0.2-0.5,0.5-0.5c0.3,0,0.5,0.2,0.5,0.5v2.3c0,0.1,0.1,0.3,0.3,0.3
						h6.2c0.1,0,0.3-0.1,0.3-0.3v-2.3C24.1,46.6,24.3,46.4,24.6,46.4z M5.1,30.2c-0.1,0-0.3,0.1-0.3,0.3v18.7c0,0.1,0.1,0.3,0.3,0.3
						h7.8c0.1,0,0.3-0.1,0.3-0.3V30.5c0-0.1-0.1-0.3-0.3-0.3H5.1z M18.4,29.5c-0.1,0-0.3,0.1-0.3,0.3v1.6c0,0.1,0.1,0.3,0.3,0.3h1.6
						c0.3,0,0.5,0.2,0.5,0.5v1.6c0,0.1,0.1,0.3,0.3,0.3h1.6c0.1,0,0.3-0.1,0.3-0.3v-1.6c0-0.3,0.2-0.5,0.5-0.5h1.6
						c0.1,0,0.3-0.1,0.3-0.3v-1.6c0-0.1-0.1-0.3-0.3-0.3H23c-0.3,0-0.5-0.2-0.5-0.5v-1.6c0-0.1-0.1-0.3-0.3-0.3h-1.6
						c-0.1,0-0.3,0.1-0.3,0.3v1.6c0,0.3-0.2,0.5-0.5,0.5H18.4z"/>
				</g>
			</g>
		</g>
		<g>
			<g>
				<g>
					<rect x="6.9" y="33.1" class="st1" width="1" height="1"/>
				</g>
			</g>
		</g>
		<g>
			<g>
				<g>
					<rect x="10" y="33.1" class="st1" width="1" height="1"/>
				</g>
			</g>
		</g>
		<g>
			<g>
				<g>
					<rect x="6.9" y="36.2" class="st1" width="1" height="1"/>
				</g>
			</g>
		</g>
		<g>
			<g>
				<g>
					<rect x="10" y="36.2" class="st1" width="1" height="1"/>
				</g>
			</g>
		</g>
		<g>
			<g>
				<g>
					<rect x="6.9" y="39.3" class="st1" width="1" height="1"/>
				</g>
			</g>
		</g>
		<g>
			<g>
				<g>
					<rect x="10" y="39.3" class="st1" width="1" height="1"/>
				</g>
			</g>
		</g>
		<g>
			<g>
				<g>
					<rect x="6.9" y="42.5" class="st1" width="1" height="1"/>
				</g>
			</g>
		</g>
		<g>
			<g>
				<g>
					<rect x="10" y="42.5" class="st1" width="1" height="1"/>
				</g>
			</g>
		</g>
		<g>
			<g>
				<g>
					<rect x="16.3" y="40.1" class="st1" width="1" height="1"/>
				</g>
			</g>
		</g>
		<g>
			<g>
				<g>
					<rect x="20.2" y="40.1" class="st1" width="1" height="1"/>
				</g>
			</g>
		</g>
		<g>
			<g>
				<g>
					<rect x="24.1" y="40.1" class="st1" width="1" height="1"/>
				</g>
			</g>
		</g>
		<g>
			<g>
				<g>
					<rect x="16.3" y="43.2" class="st1" width="1" height="1"/>
				</g>
			</g>
		</g>
		<g>
			<g>
				<g>
					<rect x="20.2" y="43.2" class="st1" width="1" height="1"/>
				</g>
			</g>
		</g>
		<g>
			<g>
				<g>
					<rect x="20.2" y="46.4" class="st1" width="1" height="1"/>
				</g>
			</g>
		</g>
		<g>
			<g>
				<g>
					<rect x="24.1" y="43.2" class="st1" width="1" height="1"/>
				</g>
			</g>
		</g>
		<g>
			<g>
				<g>
					<rect x="6.9" y="45.6" class="st1" width="1" height="1"/>
				</g>
			</g>
		</g>
		<g>
			<g>
				<g>
					<rect x="10" y="45.6" class="st1" width="1" height="1"/>
				</g>
			</g>
		</g>
	</g>
</g>
</svg>
