<?xml version="1.0" encoding="utf-8"?>
<!-- Generator: Adobe Illustrator 24.0.3, SVG Export Plug-In . SVG Version: 6.00 Build 0)  -->
<svg version="1.1" id="Livello_1" xmlns="http://www.w3.org/2000/svg" xmlns:xlink="http://www.w3.org/1999/xlink" x="0px" y="0px"
	 viewBox="0 0 40 40" style="enable-background:new 0 0 40 40;" xml:space="preserve">
<style type="text/css">
	.st0{fill:#FFFFFF;}
	.st1{fill:#1E3A6D;}
</style>
<title>img_consensi</title>
<desc>Created with Sketch.</desc>
<polygon class="st0" points="7.8,2.6 7.8,37.8 34,37.5 34,8.5 28.2,8.5 28.2,2.5 "/>
<g>
	<path class="st1" d="M12.2,14.8h10.4c0.4,0,0.7-0.3,0.7-0.7s-0.3-0.7-0.7-0.7H12.2c-0.4,0-0.7,0.3-0.7,0.7
		C11.4,14.5,11.8,14.8,12.2,14.8z M11.4,17.7c0,0.4,0.3,0.7,0.7,0.7h16.3c0.4,0,0.7-0.3,0.7-0.7c0-0.4-0.3-0.7-0.7-0.7H12.2
		C11.8,17,11.4,17.3,11.4,17.7z M28.5,20.6H12.2c-0.4,0-0.7,0.3-0.7,0.7c0,0.4,0.3,0.7,0.7,0.7h16.3c0.4,0,0.7-0.3,0.7-0.7
		S28.9,20.6,28.5,20.6z M28.5,24.2H12.2c-0.4,0-0.7,0.3-0.7,0.7c0,0.4,0.3,0.7,0.7,0.7h16.3c0.4,0,0.7-0.3,0.7-0.7
		S28.9,24.2,28.5,24.2z M28.5,27.8H12.2c-0.4,0-0.7,0.3-0.7,0.7c0,0.4,0.3,0.7,0.7,0.7h16.3c0.4,0,0.7-0.3,0.7-0.7
		S28.9,27.8,28.5,27.8z M28.5,31.4H12.2c-0.4,0-0.7,0.3-0.7,0.7c0,0.4,0.3,0.7,0.7,0.7h16.3c0.4,0,0.7-0.3,0.7-0.7
		C29.2,31.6,28.9,31.4,28.5,31.4z M34.3,7.9h-5.5V2.4c0-0.3-0.2-0.5-0.5-0.5H7.5C7.2,1.9,7,2.1,7,2.4v35.3c0,0.3,0.2,0.5,0.5,0.5
		h26.8c0.3,0,0.5-0.2,0.5-0.5V8.3C34.8,8.1,34.6,7.9,34.3,7.9z M33.8,37.2H8V2.9h19.8v5.4c0,0.3,0.2,0.5,0.5,0.5h5.5V37.2z"/>
</g>
</svg>
