<?xml version="1.0" encoding="utf-8"?>
<!-- Generator: Adobe Illustrator 21.0.2, SVG Export Plug-In . SVG Version: 6.00 Build 0)  -->
<svg version="1.1" id="Layer_1" xmlns="http://www.w3.org/2000/svg" xmlns:xlink="http://www.w3.org/1999/xlink" x="0px" y="0px"
	 viewBox="0 0 65 73" style="enable-background:new 0 0 65 73;" xml:space="preserve">
<style type="text/css">
	.st0{fill:#73D7FF;}
	.st1{fill:#003575;}
</style>
<g>
	<path class="st0" d="M41.5,26.3c-2.5-0.8-4-3.7-3.2-6.3c0.9-2.7,3.7-4.2,6.4-3.3c2.7,0.9,4.1,3.6,3.2,6.4
		C47.1,25.8,44.2,27.2,41.5,26.3z"/>
	<g>
		<path class="st0" d="M48,60.2c-0.3,0-0.6-0.1-0.9-0.4c-1.2-1.2-1.2-4.9-1.2-6.4c0-0.2,0-0.5,0-0.6c0-0.5,0-1.1,0-1.6
			c0-0.2,0-0.5-0.1-0.8l-0.1-0.5l-0.5,0c-0.8-0.1-1.5-0.2-2-0.3l-0.1,0c0,0-0.7-0.1-1-0.1l0-0.1c1.2-2.4,1.9-5,2.3-6.8
			c0.3-1.4,0.5-2.5,0.6-3.2l0-0.3l-0.2-0.2c-0.2-0.4-0.5-0.6-0.8-0.6h-0.3l-0.3,0.2c-0.9,0.7-2,1.1-3.4,1.2l-0.4,0
			c-0.5,0.1-1.1,0.1-1.6,0.1c-0.6,0-1.1-0.1-1.5-0.3c-0.1-0.1-0.2-0.2-0.3-0.3l-0.2-0.3l-0.2,0l0.2-0.1l0-0.4c0-0.1,0-0.2,0.1-0.3
			c0.2-0.5,0.6-0.8,1.2-0.8l0.6,0c0.7-0.1,1.5-0.1,2.2-0.4c1.2-0.4,2.4-1.1,3.3-2c0.1-0.1,0.2-0.2,0.3-0.4c0.2-0.2,0.4-0.5,0.6-0.8
			c0.5-0.7,0.8-1.5,1-2.4c0.1-0.5,0-1,0-1.4c0-0.4-0.1-0.8,0-1c0.1-0.4,0.6-0.8,1-0.9c0.2-0.1,0.4-0.1,0.6-0.1
			c0.8,0,1.6,0.4,2.1,1.1c1.5,1.8,2.8,4.1,3.8,7c0.8,2.2,1.3,4.3,1.5,6.3c0.1,1.9,0.2,4.3-0.8,6.1c-0.6,1-1.4,1.3-2.9,1.5l-0.4,0
			l-0.2,0.4c-0.1,0.3-0.2,0.6-0.2,0.9c0,0.7,0,1.3,0,2l0,0.4c0,1,0,2,0,3c0,1.1-0.3,2-0.6,2.6c-0.3,0.5-0.6,0.7-1,0.8
			C48.3,60.1,48.1,60.2,48,60.2z M35.5,57.4c-0.1,0-0.1-7.3-0.1-10.7c0-1.6,0-3.1-0.4-4.7c0.1,0.1,0.1,0.2,0.2,0.2
			c0.1,0.1,0.2,0.2,0.2,0.3L35.5,57.4z"/>
		<path class="st1" d="M47.2,28.6c0.5,0,1.2,0.3,1.5,0.8c1.4,1.8,2.7,4,3.7,6.8c0.8,2.1,1.3,4.1,1.4,6.1c0.1,1.8,0.2,4.1-0.7,5.7
			c-0.4,0.7-0.9,0.9-2.4,1.1l-0.9,0.1L49.6,50c-0.1,0.3-0.2,0.7-0.2,1.2c0,0.7,0,1.3,0,2l0,0.4c0,1,0,2,0,3c0,1-0.2,1.8-0.5,2.3
			c-0.2,0.4-0.4,0.4-0.5,0.5c-0.1,0-0.2,0-0.3,0c-0.1,0-0.2,0-0.3-0.1c-1-1-1-4.7-1-5.9c0-0.2,0-0.5,0-0.7c0-0.5,0-1,0-1.6
			c0-0.3,0-0.6-0.1-1l-0.3-1l-1-0.1c-1-0.1-1.5-0.2-1.8-0.3l-0.1,0l-0.1,0c0,0,0,0,0,0c1-2.2,1.6-4.5,2-6.1c0.3-1.4,0.5-2.5,0.6-3.2
			l0.1-0.6l-0.3-0.4c-0.4-0.8-1.1-0.9-1.4-0.9c-0.2,0-0.6,0.1-1,0.3c-0.7,0.6-1.7,0.9-3,1.1l-0.4,0c-0.5,0.1-1,0.1-1.5,0.1
			c-0.6,0-0.9-0.1-1.1-0.2c0,0,0,0-0.1-0.1L37,38.7l0-0.2c0,0,0-0.1,0-0.1c0-0.1,0.1-0.3,0.5-0.3l0.1,0c0.2,0,0.3,0,0.5,0
			c0.8-0.1,1.6-0.1,2.4-0.4c1.4-0.4,2.6-1.2,3.6-2.2c0.1-0.1,0.3-0.3,0.4-0.4c0.2-0.2,0.4-0.5,0.7-0.8c0.6-0.7,0.9-1.6,1.1-2.7
			c0.1-0.6,0.1-1.2,0-1.6c0-0.3-0.1-0.6,0-0.7c0.1-0.2,0.3-0.4,0.6-0.5C47,28.6,47.1,28.6,47.2,28.6 M47.2,27.1
			c-0.3,0-0.6,0-0.9,0.1c-0.6,0.2-1.3,0.7-1.5,1.4c-0.3,0.8,0.1,1.7,0,2.5c-0.1,0.8-0.4,1.5-0.9,2.1c-0.2,0.3-0.4,0.5-0.6,0.7
			c-0.1,0.1-0.2,0.2-0.3,0.3c-0.8,0.8-1.8,1.5-3,1.8c-0.6,0.2-1.3,0.3-2,0.3c-0.2,0-0.4,0-0.6,0c-0.9,0.1-1.6,0.5-1.9,1.3
			c0,0.1-0.1,0.3-0.1,0.4c-0.1,0-0.1,0.1-0.2,0.1c-1.1,0.5-1.6,1.5-1.2,2.7c0.6,1.8,0.7,3.7,0.6,5.5c0,3.4,0,10.7,0,10.7
			c0,0.4,0.3,0.8,0.8,0.8c0,0,0.1,0,0.1,0c0.4,0,0.7-0.4,0.7-0.8V42.6c0-0.5-0.5-0.8-0.7-1.2c-0.3-0.4-0.4-1-0.2-1.4
			c0.1-0.2,0.2-0.3,0.4-0.3c0,0,0,0,0,0c0.1,0.2,0.3,0.4,0.5,0.5c0.5,0.3,1.2,0.4,1.9,0.4c0.7,0,1.4-0.1,2-0.2
			c1.4-0.1,2.7-0.5,3.8-1.4c0,0,0.1,0,0.1,0c0.1,0,0.1,0.1,0.2,0.2c-0.1,0.8-0.3,1.9-0.6,3.1c-0.5,2.1-1.2,4.5-2.3,6.6
			c-0.2,0.5,0.1,1.1,0.6,1.2c0.3,0,0.6,0.1,1,0.1c0.5,0.1,1.2,0.3,2.1,0.3c0.1,0.2,0.1,0.4,0.1,0.6c0,0.5,0,1,0,1.6
			c0,1.9-0.3,8.2,2.8,8.2c0.2,0,0.4,0,0.6-0.1c0.7-0.2,1.2-0.6,1.5-1.2c0.5-0.9,0.7-2.1,0.7-3c0-1,0-2,0-3c0-0.8,0-1.6,0-2.4
			c0-0.2,0-0.5,0.1-0.7c1.5-0.2,2.8-0.4,3.5-1.9c1-1.9,1-4.4,0.9-6.5c-0.2-2.2-0.7-4.4-1.5-6.5c-1-2.6-2.2-5.1-4-7.2
			C49.3,27.7,48.3,27.1,47.2,27.1L47.2,27.1z"/>
	</g>
	<path class="st0" d="M25.1,19.9c-0.9-2.7-3.7-4.2-6.4-3.3c-0.2,0.1-0.4,0.1-0.6,0.2c0,0,0,0,0-0.1c-0.5-1.7-2.3-2.6-4-2
		c-1.7,0.5-2.5,2.3-2,3.9c0.4,1.4,1.7,2.2,3.1,2.2c-0.1,0.7,0,1.4,0.2,2.1c0.9,2.7,3.7,4.1,6.4,3.2C24.4,25.4,25.9,22.5,25.1,19.9z"
		/>
	<g>
		<path class="st0" d="M15.4,60c-0.1,0-0.3,0-0.4-0.1c-0.4-0.1-0.8-0.4-1-0.8c-0.3-0.6-0.6-1.5-0.6-2.6c0-1,0-2,0-3l0-0.4
			c0-0.7,0-1.3,0-2c0-0.4-0.1-0.7-0.2-0.9l-0.2-0.4l-0.4,0c-1.6-0.2-2.4-0.4-2.9-1.5c-1-1.8-0.9-4.2-0.8-6.1c0.2-2,0.6-4.1,1.5-6.3
			c1.1-2.9,2.3-5.2,3.8-7c0.5-0.6,1.4-1.1,2.1-1.1c0.2,0,0.4,0,0.6,0.1c0.5,0.2,0.9,0.5,1,0.9c0.1,0.3,0.1,0.6,0,1
			c0,0.4-0.1,0.9,0,1.4c0.2,1,0.5,1.8,1,2.4c0.2,0.3,0.4,0.5,0.6,0.8c0.1,0.1,0.2,0.3,0.3,0.4c0.9,0.9,2,1.6,3.3,2
			c0.7,0.2,1.5,0.3,2.2,0.4l0.6,0c0.6,0,1,0.3,1.2,0.8c0,0.1,0,0.2,0.1,0.3l0,0.4l0.2,0.1l-0.2,0L27,39c-0.1,0.1-0.2,0.2-0.3,0.3
			c-0.3,0.2-0.8,0.3-1.5,0.3c-0.5,0-1.1-0.1-1.6-0.1l-0.4,0c-1.4-0.2-2.6-0.6-3.4-1.2l-0.2-0.2l-0.3,0c-0.3,0-0.6,0.2-0.8,0.5
			l-0.2,0.2l0,0.3c0.1,0.7,0.3,1.8,0.6,3.2c0.4,1.8,1.1,4.4,2.3,6.8l0,0.1l-1,0.1l-0.1,0c-0.5,0.1-1.1,0.2-2,0.3l-0.5,0l-0.1,0.5
			c-0.1,0.3-0.1,0.6-0.1,0.8c0,0.5,0,1,0,1.6c0,0.2,0,0.4,0,0.6c0,1.6,0,5.2-1.2,6.4C16,59.9,15.7,60,15.4,60z M27.9,42.4
			c0,0,0.1-0.2,0.2-0.3c0.1-0.1,0.1-0.2,0.2-0.2c-0.4,1.6-0.4,3.1-0.4,4.7c0,3.4,0,10.7,0,10.7L27.9,42.4z"/>
		<path class="st1" d="M16.1,28.5c0.1,0,0.3,0,0.4,0.1c0.3,0.1,0.5,0.3,0.6,0.5c0,0.1,0,0.4,0,0.7c-0.1,0.4-0.1,1,0,1.6
			c0.2,1.1,0.6,2,1.1,2.7c0.2,0.3,0.5,0.6,0.7,0.8c0.1,0.1,0.2,0.3,0.4,0.4c1,1,2.2,1.8,3.6,2.2c0.8,0.3,1.6,0.3,2.4,0.4
			c0.2,0,0.3,0,0.5,0l0.2,0c0.5,0,0.5,0.2,0.5,0.3c0,0,0,0.1,0,0.1l0,0.2l-0.1,0.1c0,0,0,0-0.1,0.1c-0.1,0.1-0.4,0.2-1.1,0.2
			c-0.5,0-1-0.1-1.5-0.1l-0.4,0c-1.3-0.1-2.3-0.5-3-1.1c-0.4-0.3-0.7-0.3-1-0.3c-0.4,0-1,0.1-1.4,0.9l-0.3,0.4l0.1,0.6
			c0.1,0.7,0.3,1.8,0.6,3.2c0.4,1.6,1,3.9,2,6.1c0,0,0,0,0,0l-0.1,0l-0.1,0c-0.3,0.1-0.8,0.2-1.8,0.3l-1,0.1l-0.3,1
			c-0.1,0.4-0.1,0.7-0.1,1c0,0.5,0,1,0,1.6c0,0.2,0,0.4,0,0.6c0,1.2,0,4.9-1,5.9c-0.1,0.1-0.2,0.1-0.3,0.1c-0.1,0-0.2,0-0.3,0
			c-0.1,0-0.3-0.1-0.5-0.5c-0.3-0.5-0.5-1.3-0.5-2.3c0-1,0-2,0-3l0-0.4c0-0.7,0-1.3,0-2c0-0.5-0.1-0.9-0.2-1.2L13.4,49l-0.9-0.1
			c-1.5-0.2-2-0.4-2.4-1.1c-0.9-1.7-0.8-3.9-0.7-5.7c0.1-1.9,0.6-4,1.4-6.1c1.1-2.8,2.3-5,3.7-6.8C15,28.8,15.6,28.5,16.1,28.5
			 M16.1,27c-1,0-2.1,0.6-2.7,1.3c-1.7,2.1-3,4.7-4,7.2C8.7,37.6,8.2,39.8,8,42c-0.2,2.2-0.2,4.6,0.9,6.5c0.8,1.4,2,1.7,3.5,1.9
			c0.1,0.2,0.1,0.5,0.1,0.7c0,0.8,0,1.6,0,2.4c0,1,0,2,0,3c0,0.9,0.2,2.1,0.7,3c0.3,0.6,0.8,1,1.5,1.2c0.2,0,0.4,0.1,0.6,0.1
			c3.1,0,2.8-6.3,2.8-8.2c0-0.5,0-1,0-1.6c0-0.2,0-0.4,0.1-0.6c0.9-0.1,1.6-0.2,2.1-0.3c0.3,0,0.7-0.1,1-0.1
			c0.6-0.1,0.9-0.7,0.6-1.2c-1.1-2.1-1.8-4.6-2.3-6.6c-0.3-1.2-0.5-2.3-0.6-3.1c0.1-0.1,0.1-0.2,0.2-0.2c0,0,0,0,0.1,0
			c1.1,0.8,2.4,1.2,3.8,1.4c0.6,0.1,1.3,0.2,2,0.2c0.7,0,1.3-0.1,1.9-0.4c0.2-0.1,0.4-0.3,0.5-0.5c0,0,0,0,0,0
			c0.2,0,0.3,0.1,0.4,0.3c0.3,0.5,0.1,1-0.2,1.4c-0.2,0.4-0.7,0.7-0.7,1.2v14.9c0,0.4,0.3,0.8,0.7,0.8c0,0,0.1,0,0.1,0
			c0.4,0,0.8-0.3,0.8-0.8c0,0,0-7.3,0-10.7c0-1.9,0-3.7,0.6-5.5c0.4-1.2-0.1-2.2-1.2-2.7c-0.1,0-0.1-0.1-0.2-0.1
			c0-0.1,0-0.3-0.1-0.4c-0.3-0.8-1-1.3-1.9-1.3c-0.2,0-0.4,0-0.6,0c-0.7-0.1-1.4-0.1-2-0.3c-1.1-0.4-2.1-1-3-1.8
			c-0.1-0.1-0.2-0.2-0.3-0.3c-0.2-0.2-0.4-0.5-0.6-0.7c-0.5-0.6-0.7-1.4-0.9-2.1c-0.2-0.8,0.3-1.7,0-2.5c-0.2-0.6-0.9-1.2-1.5-1.4
			C16.7,27,16.4,27,16.1,27L16.1,27z"/>
	</g>
</g>
</svg>
