<?xml version="1.0" encoding="utf-8"?>
<!-- Generator: Adobe Illustrator 24.0.3, SVG Export Plug-In . SVG Version: 6.00 Build 0)  -->
<svg version="1.1" id="Livello_1" xmlns="http://www.w3.org/2000/svg" xmlns:xlink="http://www.w3.org/1999/xlink" x="0px" y="0px"
	 viewBox="0 0 40 40" style="enable-background:new 0 0 40 40;" xml:space="preserve">
<style type="text/css">
	.st0{fill:#73D7FF;}
	.st1{fill:#FFFFFF;}
	.st2{fill:#003575;}
</style>
<title>img_consensi</title>
<desc>Created with Sketch.</desc>
<g>
	<g>
		<g>
			<g>
				<rect x="4.1" y="3.8" class="st0" width="32.4" height="26"/>
			</g>
		</g>
		<g>
			<g>
				<rect x="15.6" y="30.4" class="st1" width="9.7" height="6"/>
			</g>
		</g>
	</g>
	<polygon class="st1" points="28,14.8 22.3,14.8 22.3,9.2 18.4,9.2 18.4,14.8 12.7,14.8 12.7,18.8 18.4,18.8 18.4,24.4 22.3,24.4 
		22.3,18.8 28,18.8 	"/>
	<g>
		<g>
			<g>
				<g>
					<g>
						<path class="st2" d="M18.2,25.2c-0.4,0-0.7-0.3-0.7-0.7V20c0-0.2-0.2-0.4-0.4-0.4h-4.4c-0.4,0-0.7-0.3-0.7-0.7v-4.4
							c0-0.4,0.3-0.7,0.7-0.7h4.4c0.2,0,0.4-0.2,0.4-0.4V9c0-0.4,0.3-0.7,0.7-0.7h4.4c0.4,0,0.7,0.3,0.7,0.7v4.4
							c0,0.2,0.2,0.4,0.4,0.4h4.4c0.4,0,0.7,0.3,0.7,0.7v4.4c0,0.4-0.3,0.7-0.7,0.7h-4.4c-0.2,0-0.4,0.2-0.4,0.4v4.4
							c0,0.4-0.3,0.7-0.7,0.7H18.2z M13.8,15.2c-0.2,0-0.4,0.2-0.4,0.4v2.2c0,0.2,0.2,0.4,0.4,0.4h4.4c0.4,0,0.7,0.3,0.7,0.7v4.4
							c0,0.2,0.2,0.4,0.4,0.4h2.2c0.2,0,0.4-0.2,0.4-0.4v-4.4c0-0.4,0.3-0.7,0.7-0.7H27c0.2,0,0.4-0.2,0.4-0.4v-2.2
							c0-0.2-0.2-0.4-0.4-0.4h-4.4c-0.4,0-0.7-0.3-0.7-0.7v-4.4c0-0.2-0.2-0.4-0.4-0.4h-2.2c-0.2,0-0.4,0.2-0.4,0.4v4.4
							c0,0.4-0.3,0.7-0.7,0.7H13.8z"/>
					</g>
				</g>
			</g>
		</g>
		<g>
			<path class="st2" d="M35,2.7H5.7c-1.5,0-2.7,1.2-2.7,2.7V28c0,1.5,1.2,2.7,2.7,2.7h9.1c0.2,0,0.4,0.2,0.4,0.4
				c0,3.1-1.1,4.3-1.6,4.7c-0.1,0-0.1,0.1-0.2,0.1h-3c-0.4,0-0.7,0.3-0.7,0.7c0,0.4,0.3,0.7,0.7,0.7h19.9c0.4,0,0.7-0.3,0.7-0.7
				c0-0.4-0.3-0.7-0.7-0.7h-3c-0.1,0-0.2,0-0.2-0.1c-0.5-0.4-1.5-1.5-1.5-4.7c0-0.2,0.2-0.4,0.4-0.4H35c1.5,0,2.7-1.2,2.7-2.7V5.3
				C37.7,3.9,36.5,2.7,35,2.7z M24.9,35.6c-0.1,0.1-0.2,0.2-0.3,0.2h-8.4c-0.1,0-0.2-0.1-0.3-0.2c-0.1-0.1-0.1-0.2,0-0.4
				c0.6-1.1,0.8-2.6,0.8-4.3c0-0.2,0.2-0.4,0.4-0.4h6.6c0.2,0,0.4,0.2,0.4,0.4c0,1.7,0.3,3.1,0.8,4.3C25,35.4,24.9,35.5,24.9,35.6z
				 M36.2,28c0,0.6-0.5,1.2-1.2,1.2H5.7c-0.6,0-1.2-0.5-1.2-1.2V5.3c0-0.6,0.5-1.2,1.2-1.2H35c0.6,0,1.2,0.5,1.2,1.2V28z"/>
		</g>
	</g>
</g>
</svg>
