<?xml version="1.0" encoding="utf-8"?>
<!-- Generator: Adobe Illustrator 21.0.2, SVG Export Plug-In . SVG Version: 6.00 Build 0)  -->
<svg version="1.1" id="Livello_1" xmlns="http://www.w3.org/2000/svg" xmlns:xlink="http://www.w3.org/1999/xlink" x="0px" y="0px"
	 viewBox="0 0 56.5 52.8" style="enable-background:new 0 0 56.5 52.8;" xml:space="preserve">
<style type="text/css">
	.st0{fill:#FFFFFF;}
</style>
<path class="st0" d="M28.6,2C15,2,3.9,13.1,3.9,26.7c0,13.6,11.1,24.7,24.7,24.7s24.7-11.1,24.7-24.7C53.3,13.1,42.2,2,28.6,2z
	 M28.6,49.5C16,49.5,5.7,39.3,5.7,26.7S16,3.8,28.6,3.8s22.9,10.3,22.9,22.9S41.2,49.5,28.6,49.5z"/>
<path class="st0" d="M28.6,10.9c-8.7,0-15.8,7.1-15.8,15.8s7.1,15.8,15.8,15.8c2.3,0,4.6-0.5,6.6-1.5l-0.8-1.6
	c-1.9,0.9-3.8,1.3-5.9,1.3c-7.7,0-14-6.3-14-14c0-7.7,6.3-14,14-14s14,6.3,14,14c0,2-0.4,3.8-1.2,5.6c-0.4,1-1.4,1.6-2.4,1.6h-3
	c-0.8,0-1.6-0.4-2.1-1c-0.5-0.6-0.7-1.5-0.4-2.3l1.2-4.4l0.7-2.6l0,0l1.2-4.5l0.3-1.1h-1.9l-0.2,0.7l-0.3,1
	c-0.8-1.1-2.1-1.7-3.5-1.7h-2.6c-2,0-3.7,1.3-4.3,3.3L21.8,30c-0.4,1.3-0.1,2.8,0.7,3.8c0.8,1.1,2.1,1.7,3.5,1.7h2.6
	c1.5,0,2.8-0.8,3.7-1.9c0,0.1,0.1,0.1,0.1,0.2c0.8,1.1,2.1,1.7,3.5,1.7h3c1.8,0,3.3-1,4-2.6c0.9-2,1.3-4.1,1.3-6.3
	C44.4,18,37.3,10.9,28.6,10.9z M28.7,33.8h-2.6c-0.8,0-1.6-0.4-2.1-1c-0.5-0.6-0.7-1.5-0.4-2.3l2.4-8.9c0.3-1.1,1.4-1.9,2.5-1.9h2.6
	c0.8,0,1.6,0.4,2.1,1c0.5,0.6,0.7,1.5,0.4,2.3L33,25.6l-1.7,6.3C30.9,33,29.9,33.8,28.7,33.8z"/>
</svg>
