<?xml version="1.0" encoding="utf-8"?>
<!-- Generator: Adobe Illustrator 21.0.2, SVG Export Plug-In . SVG Version: 6.00 Build 0)  -->
<svg version="1.1" id="Livello_1" xmlns="http://www.w3.org/2000/svg" xmlns:xlink="http://www.w3.org/1999/xlink" x="0px" y="0px"
	 viewBox="0 0 40 40" style="enable-background:new 0 0 40 40;" xml:space="preserve">
<style type="text/css">
	.st0{fill:#FFFFFF;}
	.st1{fill:none;stroke:#FFFFFF;stroke-miterlimit:10;}
</style>
<g>
	<g>
		<path class="st0" d="M25.8,11.6c-2.6-2.5-6.2-3.1-9.5-1.9c-1.9,0.7-3.3,2-4.4,3.7c-0.4,0.6-0.3,0.8,0.2,1.2
			c0.8,0.6,1.7,1.2,2.5,1.9c0.5,0.4,0.8,0.3,1.2-0.2c0.5-0.5,0.9-1.1,1.5-1.6c1.1-1,3-1,4.1-0.1c0.9,0.7,0.9,1.8,0.1,2.5
			c-0.3,0.3-0.7,0.5-1,0.7c-0.5,0.3-1.1,0.5-1.6,0.9c-1.5,1.1-2.6,2.4-2.4,4.4c0,0.6,0.2,0.8,0.9,0.8c0.6,0,1.3,0,1.9,0
			c0.7,0,1.3,0,2,0c0.5,0,0.7-0.2,0.8-0.7c0-0.2,0.1-0.4,0.2-0.5c0.4-0.7,0.9-1.2,1.6-1.6c0.3-0.2,0.6-0.3,0.9-0.5
			c0.8-0.5,1.6-1.1,2.2-2C28.3,16.3,27.8,13.6,25.8,11.6z M21.4,25.3c-1.3,0-2.7,0-4,0c-0.5,0-0.8,0.2-0.8,0.8c0,1.3,0,2.6,0,3.8
			c0,0.5,0.2,0.8,0.8,0.8c1.3,0,2.7,0,4,0c0.5,0,0.8-0.2,0.8-0.8c0-0.6,0-1.3,0-1.9c0-0.6,0-1.3,0-1.9
			C22.2,25.5,21.9,25.3,21.4,25.3z"/>
	</g>
</g>
<path class="st1" d="M19.7,3.5c8.8,0,16,7.2,16,16c0,8.8-7.2,16-16,16c-8.8,0-16-7.2-16-16C3.7,10.7,10.9,3.5,19.7,3.5z"/>
</svg>
