<?xml version="1.0" encoding="utf-8"?>
<!-- Generator: Adobe Illustrator 21.0.2, SVG Export Plug-In . SVG Version: 6.00 Build 0)  -->
<svg version="1.1" id="Livello_1" xmlns="http://www.w3.org/2000/svg" xmlns:xlink="http://www.w3.org/1999/xlink" x="0px" y="0px"
	 viewBox="0 0 40 40" style="enable-background:new 0 0 40 40;" xml:space="preserve">
<style type="text/css">
	.st0{fill:#FFFFFF;}
</style>
<g>
	<g>
		<path class="st0" d="M19.2,3.3c-9.1,0-16.5,7.4-16.5,16.5c0,9.1,7.4,16.5,16.5,16.5c9.1,0,16.5-7.4,16.5-16.5
			C35.7,10.7,28.3,3.3,19.2,3.3z M19.2,35.6c-8.8,0-15.9-7.1-15.9-15.8c0-8.7,7.1-15.8,15.9-15.8C27.9,3.9,35,11,35,19.7
			C35,28.5,27.9,35.6,19.2,35.6z M22.3,26.5c-0.1-1-0.1-1.7-0.1-2.7c0.5-0.2,1.3-1.8,1.4-3.1c0.4,0,0.9-0.4,1.1-1.8
			c0.1-0.8-0.3-1.2-0.5-1.3c0.6-1.8,1.8-7.3-2.3-7.9c-0.4-0.7-1.5-1.1-2.9-1.1c-5.6,0.1-6.3,4.3-5.1,9c-0.2,0.1-0.6,0.6-0.5,1.3
			c0.2,1.4,0.7,1.8,1.1,1.8c0.1,1.3,1,2.9,1.5,3.1c0,0.9,0,1.7-0.1,2.7c-0.8,2.2-4.9,2.3-7.3,4.4c2.5,2.5,6.5,4.3,10.7,4.3
			c4.2,0,9.2-3.4,10-4.3C27.2,28.8,23.1,28.6,22.3,26.5z"/>
	</g>
</g>
</svg>
